<?xml version="1.0" standalone="no"?>
<!DOCTYPE svg PUBLIC "-//W3C//DTD SVG 20010904//EN"
 "http://www.w3.org/TR/2001/REC-SVG-20010904/DTD/svg10.dtd">
<svg version="1.0" xmlns="http://www.w3.org/2000/svg"
 width="11726.000000pt" height="11726.000000pt" viewBox="0 0 11726.000000 11726.000000"
 preserveAspectRatio="xMidYMid meet">
<metadata>
Created by potrace 1.11, written by Peter Selinger 2001-2013
</metadata>
<g transform="translate(0.000000,11726.000000) scale(0.100000,-0.100000)"
fill="#000000" stroke="none">
<path d="M63510 99800 c-25 -4 -61 -10 -80 -13 -123 -20 -323 -79 -455 -134
-118 -49 -315 -152 -315 -165 0 -5 -4 -8 -10 -8 -32 0 -234 -163 -353 -285
-137 -139 -240 -286 -330 -470 -66 -134 -99 -220 -131 -345 -24 -94 -29 -118
-40 -195 -3 -22 -8 -56 -12 -75 -13 -80 -17 -1504 -14 -4315 2 -1514 2 -1492
62 -1735 52 -211 148 -431 274 -623 70 -107 144 -199 291 -359 141 -155 192
-256 193 -379 0 -163 -125 -281 -395 -369 -623 -204 -1076 -420 -1540 -734
-109 -74 -363 -260 -375 -276 -3 -3 -32 -28 -65 -54 -145 -116 -425 -387 -560
-541 -33 -37 -65 -73 -70 -79 -12 -13 -104 -124 -140 -168 -22 -27 -161 -214
-177 -238 -10 -14 -36 -52 -59 -85 -337 -485 -609 -1094 -764 -1715 -19 -74
-36 -146 -39 -160 -2 -14 -9 -46 -15 -73 -6 -26 -14 -64 -17 -83 -3 -20 -8
-46 -10 -58 -2 -11 -7 -41 -10 -66 -3 -25 -7 -47 -9 -50 -2 -3 -6 -34 -10 -70
-4 -36 -9 -73 -10 -82 -2 -9 -7 -48 -10 -85 -4 -37 -8 -81 -10 -98 -9 -75 -18
-306 -18 -470 0 -220 8 -388 29 -560 2 -22 7 -60 10 -85 48 -433 194 -983 371
-1400 100 -234 191 -417 316 -635 164 -286 462 -697 663 -915 23 -25 55 -61
70 -80 16 -19 34 -41 41 -48 25 -26 83 -158 90 -202 18 -127 16 -140 -151
-745 -25 -88 -60 -218 -80 -290 -19 -71 -67 -248 -106 -392 -39 -144 -73 -270
-75 -280 -3 -10 -38 -142 -79 -293 -41 -151 -102 -378 -136 -505 -34 -126 -73
-270 -87 -320 -14 -49 -26 -97 -28 -105 -2 -8 -31 -118 -65 -245 -34 -126 -63
-237 -65 -245 -2 -8 -34 -125 -70 -260 -106 -392 -206 -764 -210 -780 -4 -19
-228 -853 -259 -970 -29 -105 -96 -354 -101 -378 -3 -9 -18 -66 -35 -127 -16
-60 -32 -119 -35 -130 -2 -11 -25 -96 -50 -190 -26 -93 -55 -201 -65 -240 -10
-38 -42 -155 -70 -260 -52 -192 -72 -266 -115 -430 -13 -49 -38 -142 -55 -205
-17 -63 -42 -158 -56 -210 -14 -52 -31 -117 -39 -145 -15 -49 -124 -453 -170
-630 -13 -49 -51 -191 -85 -315 -33 -124 -63 -233 -65 -243 -2 -10 -7 -27 -10
-37 -3 -10 -8 -27 -10 -37 -2 -10 -18 -70 -35 -133 -18 -63 -34 -122 -36 -130
-2 -8 -8 -31 -13 -50 -11 -40 -70 -257 -75 -280 -19 -74 -59 -216 -61 -221 -2
-3 -7 -19 -9 -35 -3 -16 -35 -137 -71 -269 -37 -132 -68 -248 -70 -258 -4 -17
-113 -422 -160 -597 -24 -86 -74 -272 -80 -300 -3 -8 -12 -42 -21 -75 -9 -33
-18 -67 -19 -75 -2 -8 -13 -46 -23 -85 -11 -38 -37 -133 -57 -210 -20 -77 -48
-180 -62 -230 -14 -49 -26 -97 -28 -105 -4 -17 -75 -283 -142 -530 -57 -209
-83 -309 -89 -339 -3 -14 -7 -28 -10 -33 -3 -4 -7 -17 -9 -27 -2 -11 -13 -53
-24 -93 -27 -97 -60 -224 -73 -273 -15 -62 -16 -64 -43 -165 -15 -52 -28 -102
-30 -110 -2 -8 -13 -51 -25 -95 -29 -108 -42 -156 -106 -395 -30 -113 -77
-288 -104 -390 -27 -102 -57 -212 -65 -245 -9 -33 -18 -67 -20 -75 -3 -8 -13
-49 -24 -90 -22 -86 -105 -397 -201 -755 -50 -183 -85 -261 -144 -318 -57 -56
-117 -80 -281 -112 -71 -15 -139 -29 -150 -31 -11 -3 -31 -7 -45 -10 -82 -16
-361 -107 -445 -144 -103 -45 -287 -138 -360 -181 -146 -86 -354 -240 -448
-332 -179 -175 -256 -225 -358 -234 -87 -8 -194 26 -304 96 -22 14 -49 31 -60
38 -11 7 -150 92 -310 191 -159 98 -411 252 -560 341 -658 397 -1309 793
-1395 851 -56 37 -171 110 -174 110 -4 0 -118 75 -392 255 -92 61 -174 115
-183 120 -79 51 -469 323 -596 416 -251 186 -372 281 -619 487 -134 113 -197
167 -395 341 -35 31 -73 64 -85 74 -17 15 -97 88 -200 182 -6 6 -56 51 -111
100 -55 50 -111 101 -126 115 -14 14 -60 56 -101 93 -42 37 -89 80 -105 95
-42 39 -219 201 -283 259 -401 363 -463 411 -633 492 -84 40 -195 78 -257 87
-19 3 -53 10 -75 14 -42 10 -283 7 -325 -4 -14 -3 -38 -9 -53 -11 -136 -25
-328 -121 -464 -232 -223 -181 -382 -449 -411 -690 -13 -111 -6 -283 17 -375
36 -151 113 -322 195 -431 93 -125 391 -432 650 -672 65 -61 128 -120 140
-131 11 -12 116 -106 231 -209 116 -103 226 -202 245 -219 19 -17 67 -58 105
-91 39 -33 72 -62 75 -65 9 -10 275 -235 360 -305 47 -39 123 -103 170 -141
47 -39 164 -133 260 -210 189 -150 195 -154 345 -271 128 -99 545 -409 610
-454 28 -19 52 -36 55 -39 5 -6 77 -58 155 -112 28 -19 105 -74 173 -121 67
-48 127 -87 131 -87 5 0 11 -4 13 -9 4 -13 531 -362 823 -546 302 -190 860
-525 1070 -641 28 -15 100 -55 160 -89 237 -135 635 -345 975 -516 230 -116
315 -166 362 -216 28 -30 76 -119 83 -154 2 -11 6 -28 9 -37 3 -9 7 -55 11
-102 3 -47 13 -141 21 -210 20 -158 20 -159 27 -195 4 -16 9 -46 12 -65 20
-119 81 -350 121 -455 4 -11 8 -23 9 -27 2 -5 4 -10 5 -13 1 -3 3 -8 5 -12 3
-12 13 -37 57 -143 82 -196 234 -460 354 -616 21 -28 52 -68 69 -90 72 -94
248 -273 400 -406 66 -58 129 -116 141 -129 58 -66 93 -166 88 -248 -7 -89 -7
-91 -164 -661 -39 -143 -98 -361 -105 -390 -2 -8 -13 -50 -25 -92 -11 -43 -23
-85 -25 -95 -2 -10 -27 -101 -55 -203 -29 -102 -53 -193 -55 -202 -2 -9 -13
-52 -26 -95 -12 -43 -22 -82 -24 -88 -1 -5 -7 -30 -14 -55 -7 -25 -15 -52 -16
-60 -2 -8 -29 -107 -60 -220 -63 -231 -92 -339 -106 -390 -5 -19 -12 -43 -14
-52 -3 -10 -7 -26 -9 -35 -3 -10 -21 -76 -40 -148 -20 -71 -38 -139 -41 -150
-2 -11 -27 -103 -55 -205 -49 -180 -83 -303 -120 -445 -10 -38 -26 -95 -34
-125 -22 -80 -76 -283 -81 -300 -2 -8 -49 -184 -105 -390 -56 -206 -113 -418
-127 -470 -14 -52 -40 -149 -58 -215 -57 -208 -167 -619 -170 -630 -2 -13 -22
-88 -40 -150 -16 -56 -104 -387 -110 -413 -2 -9 -23 -84 -45 -167 -40 -144
-107 -394 -114 -425 -2 -8 -11 -42 -21 -75 -15 -54 -31 -115 -40 -155 -2 -8
-34 -125 -70 -260 -37 -135 -68 -252 -70 -260 -2 -8 -21 -80 -43 -160 -22 -80
-58 -217 -82 -305 -23 -88 -48 -182 -56 -210 -32 -117 -134 -502 -139 -525 -2
-8 -13 -49 -25 -90 -11 -41 -23 -82 -25 -91 -2 -9 -18 -69 -35 -134 -17 -65
-33 -125 -35 -134 -2 -9 -12 -50 -24 -91 -25 -91 -110 -409 -116 -436 -2 -10
-38 -147 -80 -304 -43 -157 -79 -292 -81 -300 -1 -8 -17 -67 -34 -130 -17 -63
-46 -173 -65 -245 -19 -71 -50 -191 -70 -265 -40 -152 -43 -163 -49 -187 -3
-10 -26 -99 -51 -197 -26 -99 -48 -186 -50 -195 -2 -9 -18 -70 -35 -136 -17
-66 -32 -127 -34 -135 -12 -44 -57 -228 -61 -244 -2 -10 -31 -131 -64 -270
-55 -228 -136 -583 -147 -646 -3 -14 -10 -45 -15 -70 -6 -25 -12 -54 -15 -65
-2 -11 -16 -76 -30 -145 -30 -142 -30 -146 -44 -220 -6 -30 -12 -66 -15 -80
-3 -14 -7 -36 -10 -50 -3 -14 -7 -35 -9 -46 -2 -12 -7 -37 -10 -55 -7 -42 -13
-72 -32 -174 -8 -44 -17 -98 -20 -120 -6 -44 -9 -64 -23 -145 -6 -30 -13 -75
-16 -100 -3 -25 -8 -52 -10 -60 -2 -8 -6 -35 -9 -60 -3 -25 -8 -54 -10 -66 -2
-11 -7 -47 -10 -80 -4 -32 -8 -66 -11 -74 -2 -8 -7 -35 -9 -60 -3 -25 -8 -61
-11 -80 -2 -19 -7 -55 -10 -80 -3 -25 -7 -56 -10 -70 -2 -14 -7 -52 -10 -85
-3 -33 -13 -109 -20 -170 -8 -60 -17 -137 -20 -170 -3 -33 -7 -71 -9 -85 -3
-14 -7 -54 -11 -90 -3 -36 -7 -81 -9 -100 -4 -33 -12 -105 -22 -210 -2 -25 -6
-65 -9 -90 -2 -25 -7 -72 -10 -105 -4 -33 -8 -76 -10 -95 -2 -19 -7 -71 -11
-115 -4 -44 -8 -91 -9 -105 -1 -14 -6 -61 -10 -105 -3 -44 -8 -91 -10 -105 -2
-14 -7 -65 -10 -115 -4 -49 -9 -103 -11 -120 -4 -31 -11 -114 -19 -225 -3 -36
-7 -81 -9 -100 -3 -19 -8 -66 -11 -105 -3 -38 -7 -88 -10 -110 -2 -22 -7 -71
-11 -110 -3 -38 -7 -88 -9 -110 -2 -22 -6 -71 -9 -110 -4 -38 -8 -86 -11 -105
-2 -19 -7 -62 -10 -95 -3 -33 -8 -82 -10 -110 -6 -65 -15 -157 -20 -220 -10
-125 -22 -249 -31 -335 -3 -25 -7 -79 -9 -120 -3 -41 -7 -93 -10 -115 -2 -22
-7 -74 -10 -115 -3 -41 -8 -95 -10 -120 -2 -25 -7 -81 -10 -125 -7 -97 -14
-183 -20 -250 -3 -27 -7 -81 -10 -120 -3 -38 -7 -92 -10 -120 -6 -69 -13 -155
-21 -255 -3 -46 -7 -87 -9 -90 -2 -3 0 -11 4 -18 4 -8 21 3 50 31 100 97 138
164 325 577 59 129 111 242 116 251 5 9 32 68 60 130 29 63 91 197 137 299 47
102 97 210 111 240 13 30 40 89 59 130 35 75 45 96 150 325 31 66 75 162 99
214 24 51 44 95 44 97 0 1 25 55 55 119 30 65 55 118 55 120 0 2 17 41 39 87
21 45 49 106 61 133 37 82 80 176 110 240 15 33 39 85 53 115 28 64 51 115
102 225 20 44 54 118 75 165 20 47 56 125 79 173 22 49 41 90 41 92 0 3 111
236 300 630 84 174 184 388 245 520 26 58 137 310 154 350 10 25 24 56 50 117
12 26 21 50 21 53 0 4 7 21 15 38 40 87 225 615 240 687 2 8 8 27 14 43 6 15
13 38 16 50 2 12 16 58 29 102 51 169 88 294 116 390 77 274 172 612 175 625
1 8 21 83 43 165 34 123 102 383 118 445 2 8 8 33 14 55 6 22 12 47 14 55 2 8
22 85 44 170 35 133 126 489 138 539 2 9 8 34 14 56 14 53 17 64 25 100 4 17
13 50 21 75 7 25 15 56 18 70 3 14 21 88 41 165 20 77 38 147 40 156 2 8 17
69 35 135 17 65 33 126 35 134 1 8 8 35 15 60 7 25 13 52 15 60 2 8 17 67 34
130 17 63 42 158 56 210 14 52 44 163 66 245 22 83 42 158 44 168 2 10 14 52
25 95 12 42 37 136 55 208 19 71 43 164 55 205 12 40 23 81 25 89 6 28 56 214
71 266 8 28 17 62 19 74 2 13 9 37 14 54 6 17 33 119 61 226 69 260 117 442
185 695 81 300 123 457 149 560 13 50 34 125 45 167 12 43 24 85 26 95 2 10
18 70 35 133 33 124 58 216 64 240 2 8 18 68 36 133 17 64 33 125 35 135 8 30
101 379 170 632 37 135 73 272 81 305 8 33 43 166 78 295 35 129 80 298 101
375 20 77 43 163 50 190 14 50 36 131 41 150 2 10 34 129 76 285 11 41 22 86
24 99 3 14 7 28 9 31 2 4 18 60 35 126 46 175 75 284 115 429 20 72 38 141 41
155 2 14 9 39 14 55 5 17 52 192 105 390 52 198 99 376 105 395 41 149 100
369 104 390 2 14 5 25 6 25 1 0 3 7 5 15 2 8 31 119 65 245 85 314 138 513
165 620 59 229 98 313 179 379 44 37 125 73 183 82 20 3 45 8 57 10 22 4 62
11 106 18 14 2 54 12 90 21 36 9 70 18 75 19 180 40 454 152 700 285 123 67
442 289 511 356 6 5 39 35 74 65 63 55 199 189 338 332 73 75 126 109 227 143
74 24 184 22 405 -10 14 -2 54 -7 90 -11 36 -4 67 -8 70 -9 3 -1 37 -5 75 -9
39 -5 77 -9 85 -11 8 -1 42 -6 75 -10 32 -4 66 -8 75 -10 8 -2 44 -6 80 -10
36 -3 72 -8 80 -10 8 -2 39 -7 69 -10 30 -4 61 -8 70 -10 9 -1 45 -6 81 -10
36 -4 67 -8 70 -10 3 -2 34 -6 70 -10 36 -4 67 -8 70 -10 3 -2 39 -6 80 -10
41 -4 77 -8 80 -10 3 -1 30 -6 61 -9 31 -4 65 -8 75 -10 11 -2 42 -7 69 -10
48 -7 69 -9 165 -21 25 -3 56 -7 70 -10 14 -2 50 -7 80 -10 30 -3 66 -8 80
-10 14 -2 48 -7 75 -10 28 -4 64 -8 80 -10 36 -5 282 -34 345 -41 25 -2 56 -6
70 -9 14 -2 61 -7 105 -11 44 -3 89 -8 100 -10 11 -2 55 -6 98 -10 43 -3 86
-7 95 -9 10 -1 55 -6 102 -9 47 -4 105 -9 130 -12 25 -2 79 -6 120 -9 41 -3
107 -7 145 -10 159 -11 247 -16 510 -30 512 -26 1541 -26 2050 0 39 2 124 6
190 9 66 3 143 8 170 11 28 2 95 8 150 11 55 4 116 8 135 9 19 2 76 6 125 9
50 4 106 9 125 11 19 2 69 7 110 11 136 11 255 23 300 29 19 3 62 7 95 11 33
3 71 7 85 9 14 2 50 7 80 10 30 3 71 7 90 10 19 3 55 7 80 10 99 11 136 16
160 20 14 3 48 7 75 10 28 3 57 8 65 10 8 2 39 7 69 10 30 4 61 8 70 10 9 1
52 8 96 15 44 6 91 13 105 15 14 3 43 7 65 10 22 4 76 13 120 20 44 8 96 17
115 20 74 12 440 77 535 96 55 11 114 22 130 25 17 2 62 11 100 19 39 8 81 16
95 18 14 3 66 12 115 22 50 9 101 19 115 21 14 3 32 7 40 9 8 2 29 7 45 9 49
9 266 52 475 95 107 22 206 42 220 45 14 3 36 7 50 10 14 3 149 31 300 62 151
31 282 57 290 59 8 2 50 10 92 19 42 9 94 19 115 22 21 3 41 8 44 10 3 2 21 6
40 9 19 3 99 19 178 36 80 16 147 26 151 22 4 -5 18 -51 32 -103 14 -52 67
-246 118 -430 51 -184 94 -341 96 -350 14 -60 27 -107 31 -120 3 -8 7 -20 8
-25 2 -6 21 -78 43 -160 23 -83 53 -195 68 -250 14 -55 37 -140 50 -190 14
-49 26 -97 28 -105 7 -26 164 -615 242 -903 42 -154 77 -286 79 -295 2 -10 20
-75 39 -147 19 -71 48 -182 65 -245 17 -63 35 -131 41 -150 10 -32 110 -409
182 -680 16 -63 41 -155 55 -205 13 -49 31 -115 39 -145 8 -30 16 -62 18 -70
3 -8 9 -33 15 -55 5 -22 14 -56 20 -75 8 -29 24 -90 45 -170 2 -8 27 -101 56
-207 28 -106 53 -202 55 -213 2 -11 6 -24 9 -28 3 -5 7 -19 10 -33 3 -13 12
-49 20 -79 14 -53 20 -77 66 -245 12 -44 27 -98 32 -120 13 -55 5 -23 133
-500 64 -236 127 -470 140 -520 46 -174 94 -351 125 -465 17 -63 35 -131 40
-150 6 -29 57 -220 155 -580 8 -30 26 -98 40 -150 14 -52 32 -119 41 -148 8
-29 17 -61 19 -71 2 -11 17 -68 34 -127 16 -60 32 -120 35 -134 3 -14 12 -47
20 -75 8 -27 28 -104 46 -170 58 -219 69 -259 95 -355 15 -52 28 -103 31 -112
6 -26 10 -41 43 -163 84 -308 122 -452 126 -469 2 -10 12 -44 21 -75 9 -31 17
-63 19 -71 2 -8 9 -35 16 -60 7 -25 13 -49 15 -55 1 -5 30 -112 64 -238 33
-125 63 -235 65 -245 2 -9 11 -42 20 -72 9 -30 18 -62 20 -70 2 -8 20 -76 40
-150 77 -288 87 -325 90 -340 6 -24 214 -790 230 -845 17 -58 146 -543 150
-565 2 -8 11 -44 20 -80 9 -36 19 -72 21 -80 2 -8 13 -53 25 -100 11 -47 23
-92 25 -100 2 -8 10 -40 19 -70 8 -30 17 -67 20 -83 3 -15 12 -53 21 -85 8
-31 17 -67 20 -78 4 -21 92 -367 133 -524 10 -41 36 -138 56 -215 20 -77 40
-153 46 -170 5 -16 36 -124 68 -240 33 -115 64 -221 69 -235 5 -14 9 -27 9
-30 -1 -8 58 -193 134 -422 153 -460 302 -827 529 -1303 34 -71 75 -157 90
-190 15 -33 43 -94 63 -135 83 -177 290 -629 429 -935 82 -181 158 -348 168
-370 10 -22 34 -75 54 -118 20 -44 36 -80 36 -82 0 -2 16 -39 36 -82 20 -43
44 -96 54 -118 16 -36 177 -395 220 -490 10 -22 27 -60 38 -85 11 -25 39 -85
61 -133 23 -49 41 -90 41 -92 0 -1 19 -43 42 -92 23 -48 42 -90 42 -93 1 -3
11 -25 22 -50 19 -40 81 -175 144 -315 13 -27 54 -117 92 -200 39 -82 83 -179
100 -215 16 -36 40 -87 53 -115 55 -117 340 -725 366 -783 16 -34 29 -67 29
-72 0 -6 4 -10 9 -10 5 0 12 -8 14 -18 14 -49 -11 584 -38 988 -2 30 -6 97
-10 148 -7 107 -12 180 -20 272 -3 36 -8 94 -10 130 -3 36 -8 88 -10 115 -3
28 -7 82 -10 120 -3 39 -7 90 -10 115 -2 25 -7 74 -10 110 -3 36 -8 85 -11
110 -2 25 -6 70 -9 101 -10 128 -15 186 -20 229 -6 54 -16 158 -21 220 -9 118
-25 299 -30 345 -2 22 -6 67 -9 100 -3 33 -8 80 -10 105 -2 25 -7 79 -10 120
-3 41 -8 86 -10 100 -2 14 -6 57 -10 95 -17 202 -17 200 -40 430 -8 83 -17
175 -20 205 -3 30 -8 80 -10 110 -3 30 -7 66 -10 80 -2 14 -6 59 -10 100 -3
41 -8 82 -10 90 -2 8 -7 46 -10 84 -10 110 -14 158 -20 196 -6 45 -13 102 -20
165 -10 91 -23 198 -30 245 -2 14 -6 50 -10 81 -3 31 -7 65 -9 75 -2 11 -7 46
-10 79 -4 33 -9 71 -11 85 -2 14 -7 45 -10 70 -4 25 -8 58 -11 73 -2 16 -6 45
-9 65 -2 20 -7 54 -10 75 -3 20 -7 52 -9 70 -6 40 -14 96 -26 167 -5 30 -12
73 -15 95 -2 22 -7 51 -9 65 -3 14 -7 43 -11 65 -5 36 -11 73 -21 130 -2 11
-11 63 -20 115 -16 101 -17 103 -39 225 -22 117 -25 133 -40 210 -8 39 -17 84
-20 102 -11 68 -79 387 -116 548 -22 94 -41 179 -43 190 -2 11 -16 67 -30 125
-15 58 -28 113 -31 123 -24 101 -81 315 -132 492 -99 344 -383 1349 -388 1371
-5 22 -169 613 -185 664 -6 19 -36 127 -66 240 -31 113 -67 246 -81 295 -13
50 -33 122 -43 160 -23 84 -33 120 -105 385 -31 113 -57 212 -59 220 -4 14
-81 301 -143 530 -14 52 -38 142 -53 200 -16 58 -73 274 -128 480 -92 342
-114 424 -158 590 -8 30 -30 114 -49 185 -19 72 -71 267 -115 435 -45 168 -83
312 -85 320 -5 23 -64 244 -92 345 -13 50 -26 99 -28 110 -2 11 -18 72 -35
135 -17 63 -33 122 -35 130 -2 8 -20 76 -40 150 -20 74 -40 151 -45 170 -4 19
-24 96 -44 170 -20 74 -39 142 -41 150 -4 18 -65 250 -125 475 -23 88 -64 243
-91 345 -27 102 -54 199 -59 217 -6 18 -13 42 -15 55 -3 13 -21 84 -41 158
-53 197 -101 374 -124 460 -11 41 -41 152 -66 245 -123 458 -185 691 -189 705
-9 41 -57 219 -66 246 -5 17 -11 40 -14 50 -4 21 -34 134 -67 254 -11 41 -28
107 -38 145 -11 39 -33 122 -50 185 -17 63 -44 165 -60 225 -16 61 -43 162
-60 225 -17 63 -101 376 -186 695 -197 737 -190 709 -226 845 -34 129 -72 268
-94 350 -9 30 -17 63 -19 73 -2 10 -13 51 -25 93 -11 41 -20 78 -20 83 0 5 22
20 48 34 27 14 64 34 83 44 19 11 72 34 119 52 118 47 421 170 445 181 11 5
119 52 240 104 224 96 358 155 498 220 43 20 80 36 82 36 2 0 61 27 131 61 71
33 174 81 229 107 111 52 849 422 935 469 30 17 96 52 145 78 50 26 108 58
130 70 22 12 69 38 105 57 148 79 637 358 682 389 14 11 29 19 31 19 8 0 371
221 570 346 86 54 165 104 175 109 42 24 701 464 807 538 576 404 1124 815
1527 1146 7 6 34 28 59 48 102 84 335 278 398 332 30 25 75 64 100 85 101 85
198 171 287 251 6 6 41 37 79 70 69 60 306 274 336 304 9 9 63 60 120 113 195
182 214 200 374 357 175 173 243 247 323 355 117 155 184 298 218 461 17 84
22 239 11 330 -6 46 -9 61 -21 120 -2 11 -16 55 -30 98 -93 276 -293 505 -561
641 -150 76 -293 110 -465 110 -191 0 -365 -42 -545 -131 -61 -31 -200 -117
-215 -133 -3 -3 -25 -21 -50 -40 -39 -30 -255 -213 -376 -319 -22 -20 -67 -59
-100 -87 -32 -28 -95 -82 -139 -120 -44 -38 -82 -71 -85 -74 -3 -3 -54 -48
-115 -100 -60 -51 -112 -96 -115 -99 -3 -4 -32 -29 -65 -56 -33 -28 -62 -53
-65 -56 -3 -3 -39 -34 -80 -69 -41 -35 -77 -67 -80 -70 -4 -4 -148 -127 -230
-196 -14 -12 -59 -50 -100 -85 -224 -192 -724 -608 -834 -694 -21 -16 -80 -63
-130 -104 -50 -41 -113 -91 -141 -112 -27 -21 -77 -60 -111 -86 -696 -548
-1451 -1056 -2184 -1472 -80 -45 -152 -86 -160 -91 -31 -18 -198 -109 -275
-150 -44 -24 -129 -69 -190 -101 -355 -189 -1039 -517 -1425 -684 -41 -18 -95
-42 -120 -53 -165 -76 -849 -356 -855 -350 -16 15 -122 370 -160 534 -2 11 -9
35 -14 54 -5 19 -19 71 -31 115 -11 44 -30 113 -41 153 -11 40 -22 81 -24 90
-2 9 -12 44 -21 77 -9 33 -18 67 -20 75 -15 59 -96 363 -135 505 -17 61 -32
121 -35 135 -3 14 -8 34 -11 45 -4 11 -8 25 -9 30 -2 6 -19 71 -39 145 -20 74
-38 142 -40 150 -2 8 -20 76 -40 150 -20 74 -38 142 -40 150 -2 8 -20 76 -41
150 -20 74 -38 143 -39 153 -2 9 -6 21 -9 25 -3 5 -7 19 -9 33 -3 13 -34 134
-71 269 -145 543 -289 1080 -312 1170 -99 373 -136 511 -148 555 -8 28 -31
113 -51 190 -21 77 -47 178 -60 225 -13 47 -39 148 -60 225 -20 77 -45 169
-55 205 -11 36 -32 117 -49 180 -16 63 -64 243 -106 400 -42 157 -83 310 -91
340 -8 30 -44 165 -80 300 -36 135 -68 252 -70 260 -1 8 -25 98 -53 200 -27
102 -61 229 -75 283 -15 53 -31 108 -36 122 -5 14 -7 25 -5 25 2 0 0 11 -5 25
-5 14 -12 36 -14 48 -3 12 -17 65 -31 117 -15 52 -28 102 -30 110 -7 35 -37
147 -46 175 -5 17 -41 149 -79 295 -39 146 -77 288 -85 315 -8 28 -37 138 -65
245 -28 107 -58 218 -65 245 -8 28 -22 77 -30 110 -35 133 -97 362 -145 540
-18 66 -45 167 -60 225 -24 91 -89 333 -176 655 -14 50 -27 98 -29 109 -2 10
-12 44 -21 75 -9 31 -17 63 -19 71 -2 8 -13 51 -25 95 -12 44 -34 127 -50 185
-44 164 -80 299 -100 375 -37 139 -122 452 -147 545 -35 129 -75 279 -117 435
-19 72 -53 198 -75 280 -22 83 -50 184 -61 225 -11 41 -38 140 -59 220 -22 80
-49 181 -61 225 -12 44 -42 154 -66 245 -25 91 -58 215 -74 275 -16 61 -38
142 -49 180 -30 111 -143 526 -153 565 -25 98 -107 401 -133 490 -13 47 -26
96 -29 110 -2 14 -16 66 -30 115 -34 118 -171 623 -181 665 -2 8 -18 65 -35
125 -17 61 -33 118 -35 127 -5 21 -141 524 -160 593 -51 178 -82 300 -92 360
-2 17 -8 46 -11 65 -22 110 6 279 63 391 28 54 96 151 136 194 21 22 47 51 58
65 11 14 27 32 35 40 12 14 121 144 149 180 166 211 339 464 448 655 222 392
371 740 483 1133 40 137 80 294 92 357 2 11 6 31 9 45 2 14 7 39 10 55 3 17 7
41 10 55 3 14 7 39 10 55 3 17 7 41 10 55 2 14 7 45 10 70 4 25 8 56 10 70 48
319 55 918 15 1290 -13 129 -24 214 -35 270 -2 14 -7 43 -10 65 -9 64 -35 199
-70 365 -20 95 -98 363 -152 520 -95 279 -250 623 -385 858 -26 46 -48 85 -48
87 0 8 -142 230 -208 325 -67 98 -236 321 -275 364 -12 14 -31 35 -41 48 -135
166 -461 493 -626 627 -23 19 -48 40 -54 46 -9 8 -134 107 -181 142 -508 386
-1073 675 -1739 892 -238 77 -263 90 -356 181 -68 68 -92 115 -98 200 -9 127
46 241 183 383 175 181 215 230 309 374 131 203 217 405 266 622 28 128 32
151 50 301 9 81 5 5535 -4 5610 -4 25 -11 84 -17 132 -6 48 -12 93 -13 100 -2
7 -6 31 -11 53 -20 107 -76 295 -111 373 -104 237 -223 412 -404 592 -296 298
-664 491 -1060 559 -110 19 -364 25 -450 11z m1460 -11801 c58 -18 107 -33
110 -34 44 -14 196 -82 270 -122 523 -280 943 -763 1215 -1399 43 -100 139
-374 149 -427 3 -12 16 -69 29 -127 14 -58 28 -123 31 -144 4 -21 8 -48 11
-60 7 -31 15 -95 21 -151 3 -27 9 -84 14 -125 9 -75 6 -538 -3 -595 -3 -16 -8
-52 -12 -80 -12 -105 -18 -134 -46 -265 -34 -153 -65 -260 -121 -408 -44 -117
-123 -292 -133 -292 -4 0 -70 23 -147 51 -120 43 -205 67 -292 85 -122 24
-321 22 -447 -5 -101 -21 -253 -74 -280 -97 -8 -8 -19 -14 -22 -14 -4 0 -39
-20 -78 -46 -133 -85 -278 -253 -353 -409 -40 -83 -42 -89 -70 -185 -38 -131
-47 -198 -46 -355 0 -173 14 -258 80 -500 16 -58 17 -63 38 -150 11 -44 41
-159 66 -255 26 -96 64 -242 86 -325 22 -82 50 -190 63 -240 14 -49 41 -153
61 -230 21 -76 39 -142 41 -145 2 -4 7 -22 10 -41 3 -19 12 -56 20 -84 31
-106 57 -199 60 -214 6 -34 36 -147 45 -171 7 -20 87 -318 95 -355 1 -5 4 -17
8 -25 3 -8 12 -42 20 -75 8 -33 23 -87 32 -120 9 -33 18 -67 20 -75 2 -8 14
-55 28 -105 25 -92 81 -299 162 -600 25 -93 49 -186 55 -205 46 -166 68 -247
125 -460 35 -135 83 -312 106 -395 22 -82 49 -184 59 -225 10 -41 35 -136 55
-210 21 -74 50 -182 65 -240 16 -58 44 -166 64 -240 20 -74 54 -202 76 -285
23 -82 43 -158 45 -168 2 -9 15 -59 29 -110 28 -100 86 -313 91 -337 2 -8 11
-42 20 -75 9 -33 18 -67 20 -75 2 -8 38 -143 80 -300 107 -401 124 -463 151
-565 14 -49 26 -97 28 -105 11 -42 116 -438 171 -640 20 -74 40 -151 45 -170
4 -19 38 -145 74 -279 36 -134 68 -253 71 -265 4 -20 148 -557 310 -1156 42
-157 78 -292 80 -301 3 -14 37 -141 80 -304 9 -33 32 -116 50 -185 18 -69 41
-152 50 -185 9 -33 18 -68 20 -78 2 -10 22 -84 44 -165 22 -81 50 -183 61
-227 12 -44 35 -129 51 -190 16 -60 32 -118 34 -129 2 -10 12 -44 21 -75 9
-31 18 -64 19 -73 2 -9 15 -61 30 -115 15 -54 28 -106 30 -116 2 -9 6 -21 9
-25 3 -5 7 -19 10 -33 2 -13 14 -60 26 -104 12 -44 26 -96 30 -115 9 -33 94
-351 161 -600 17 -63 33 -126 36 -139 2 -14 6 -28 9 -33 3 -4 7 -16 9 -25 2
-10 15 -62 30 -116 15 -54 28 -108 30 -119 3 -12 9 -35 15 -53 6 -18 13 -41
15 -51 9 -39 76 -290 86 -320 5 -17 11 -40 14 -52 2 -11 24 -98 50 -192 26
-94 48 -179 50 -188 9 -34 24 -91 70 -261 25 -95 48 -181 50 -190 4 -14 55
-207 120 -446 14 -49 54 -200 90 -335 36 -135 72 -267 80 -295 8 -27 26 -95
40 -150 46 -178 175 -658 191 -710 8 -27 36 -133 63 -235 129 -484 251 -938
260 -965 6 -16 17 -57 25 -90 8 -33 29 -109 46 -170 17 -60 33 -121 36 -133 6
-28 128 -483 150 -557 7 -27 30 -111 50 -185 20 -74 47 -175 61 -225 13 -49
28 -106 33 -125 4 -19 15 -62 24 -95 10 -33 28 -100 41 -150 14 -49 36 -130
49 -178 18 -63 21 -89 13 -92 -26 -9 -231 -66 -362 -100 -167 -44 -402 -104
-430 -110 -11 -3 -96 -23 -190 -46 -207 -50 -322 -76 -355 -83 -14 -2 -79 -16
-145 -31 -66 -14 -176 -37 -245 -51 -69 -14 -132 -27 -140 -28 -54 -12 -434
-83 -520 -97 -36 -5 -83 -14 -105 -19 -22 -4 -62 -11 -90 -15 -27 -3 -86 -12
-130 -20 -44 -8 -100 -17 -125 -20 -25 -3 -83 -12 -130 -20 -47 -8 -110 -17
-140 -20 -30 -3 -62 -8 -70 -10 -8 -2 -37 -6 -65 -10 -27 -3 -61 -8 -75 -10
-14 -2 -47 -6 -75 -9 -27 -4 -61 -8 -75 -11 -14 -2 -52 -7 -85 -10 -33 -3 -71
-8 -85 -10 -22 -3 -90 -11 -170 -20 -14 -1 -56 -5 -95 -9 -38 -4 -81 -9 -95
-11 -23 -4 -95 -11 -210 -20 -25 -3 -67 -7 -95 -9 -27 -3 -86 -8 -130 -11 -44
-3 -98 -8 -120 -10 -22 -2 -80 -7 -130 -10 -49 -3 -115 -7 -145 -10 -30 -3
-95 -7 -145 -10 -239 -13 -286 -15 -365 -19 -511 -26 -1679 -26 -2085 -1 -33
2 -116 7 -185 10 -69 4 -147 8 -175 10 -27 2 -97 6 -155 9 -58 4 -130 9 -160
11 -55 5 -125 10 -255 20 -38 3 -90 8 -115 11 -25 2 -71 6 -102 9 -31 2 -83 7
-115 10 -32 3 -76 8 -98 10 -122 12 -163 17 -190 20 -16 2 -61 7 -100 10 -38
3 -77 8 -85 10 -8 2 -44 7 -80 10 -36 4 -76 8 -90 10 -30 5 -76 11 -190 25
-47 6 -132 18 -190 26 -58 9 -123 18 -145 20 -22 2 -49 6 -61 9 -12 3 -36 7
-55 9 -104 15 -196 29 -214 32 -10 2 -37 6 -60 9 -22 3 -47 8 -55 10 -8 2 -35
6 -60 9 -25 3 -56 8 -70 11 -14 3 -52 10 -85 15 -33 6 -73 12 -90 15 -46 9
-74 14 -140 25 -33 6 -95 18 -137 27 -77 16 -78 16 -79 47 0 17 -2 38 -4 46
-1 8 -10 58 -20 110 -9 52 -18 100 -19 105 -2 6 -6 28 -10 50 -58 302 -203
689 -371 985 -93 165 -294 446 -393 548 -9 10 -47 50 -83 88 -77 80 -178 177
-266 253 -57 49 -84 90 -100 156 -3 11 -6 70 -8 130 -3 125 7 189 64 402 74
277 122 458 126 473 2 8 15 60 30 115 14 55 67 253 117 440 49 187 103 390
119 450 17 61 32 117 34 126 6 28 94 361 110 414 13 47 193 722 201 755 5 23
77 289 118 440 21 74 39 144 41 155 2 11 11 45 20 75 9 30 18 64 20 74 5 22
166 626 195 731 19 69 77 282 145 540 19 72 42 155 50 185 8 30 40 150 71 265
30 116 61 230 69 255 15 52 125 464 130 488 2 9 29 109 59 222 31 113 58 214
61 225 2 11 13 52 24 90 11 39 31 115 46 170 15 55 36 134 47 175 11 41 24 91
29 110 5 19 11 42 13 50 2 8 22 83 45 165 55 207 72 268 76 285 1 8 9 35 16
60 15 54 11 38 49 185 17 66 42 158 55 205 18 63 221 822 299 1120 4 14 14 50
22 80 9 30 17 63 20 73 7 31 13 51 59 222 46 169 112 416 165 615 47 176 121
452 137 510 8 30 16 62 18 70 2 8 17 66 35 129 17 62 33 121 35 130 1 9 40
153 85 321 45 168 90 337 101 375 10 39 30 113 44 165 14 52 28 103 30 112 2
9 40 151 84 315 44 164 91 341 105 393 14 52 48 181 76 285 28 105 62 231 75
280 13 50 31 117 40 150 9 33 18 65 19 70 1 6 8 30 15 55 64 237 134 499 137
514 2 10 8 33 14 50 5 17 18 65 29 106 47 186 84 321 107 400 44 146 116 365
124 373 6 7 128 -8 255 -29 17 -3 41 -7 55 -9 14 -2 54 -8 90 -14 36 -6 82
-13 104 -17 21 -3 46 -7 55 -9 9 -1 52 -8 96 -15 44 -6 94 -14 110 -17 17 -3
40 -7 52 -8 13 -2 42 -6 65 -10 51 -8 77 -12 138 -20 25 -3 56 -8 70 -10 53
-8 265 -35 315 -39 393 -37 574 -25 778 54 354 136 590 418 672 803 22 103 24
310 5 428 -43 269 -176 499 -385 664 -82 65 -106 80 -205 128 -166 79 -298
113 -509 132 -89 8 -156 15 -186 20 -16 2 -48 7 -70 10 -183 26 -478 74 -675
110 -46 9 -64 12 -130 20 -30 4 -57 9 -59 11 -2 2 -5 154 -6 336 -1 183 -5
349 -8 368 -4 19 -9 53 -12 76 -4 34 -14 87 -41 224 -3 14 -18 65 -35 114
-126 379 -368 581 -744 623 -107 12 -303 6 -410 -12 -16 -3 -57 -10 -90 -16
-33 -5 -120 -26 -193 -45 -72 -18 -134 -34 -136 -34 -12 0 -128 220 -173 328
-31 76 -75 197 -88 242 -45 164 -77 323 -90 455 -4 33 -8 71 -11 85 -6 32 -6
417 0 450 3 14 8 59 12 100 4 41 8 84 9 95 1 11 5 34 8 50 3 17 9 46 11 65 3
19 8 46 11 60 2 14 10 50 15 80 6 30 15 66 20 80 6 14 11 34 13 45 30 176 204
606 340 840 78 135 213 332 283 415 12 14 41 48 64 75 82 98 277 288 365 357
6 4 24 18 40 31 95 75 321 217 410 257 28 12 77 35 110 50 94 43 196 75 203
64 4 -6 79 -125 166 -265 383 -610 492 -722 781 -799 63 -17 99 -23 190 -35
17 -2 93 -5 170 -5 299 -3 506 76 686 260 121 125 204 262 292 485 34 87 97
285 112 353 5 24 11 32 23 28 10 -2 64 -19 122 -37z m-8820 -24710 c427 -82
781 -353 984 -756 60 -117 101 -251 126 -410 11 -65 16 -326 7 -341 -3 -4 -8
-27 -11 -52 -24 -178 -119 -408 -236 -572 -128 -180 -310 -339 -502 -438 -57
-30 -199 -89 -228 -95 -8 -2 -42 -10 -75 -19 -97 -24 -123 -27 -270 -31 -225
-7 -404 34 -620 141 -167 82 -349 228 -474 379 -131 158 -235 374 -282 586
-23 105 -33 317 -18 409 5 30 11 71 14 90 10 63 46 181 81 264 132 314 387
580 697 730 131 63 222 92 397 124 88 17 299 12 410 -9z"/>
<path d="M5299 84021 c0 -9 -1 -10100 -1 -22426 l-1 -22410 5057 -3 5056 -2 0
6019 0 6019 168 220 c92 121 250 329 352 462 102 134 192 252 200 264 16 23
184 245 198 261 4 6 64 84 132 175 69 90 131 171 137 180 7 8 69 89 137 180
69 91 129 170 133 175 5 6 36 47 70 92 34 45 67 88 73 95 6 7 45 58 86 113 41
55 80 107 87 115 7 8 23 31 37 50 13 19 29 40 35 46 5 6 20 24 32 40 60 80
346 457 588 774 148 195 323 425 388 510 64 85 187 247 273 360 86 113 195
257 242 320 48 63 92 122 99 130 7 8 129 168 270 355 142 187 310 408 373 490
62 83 163 215 224 295 61 80 144 190 186 245 69 90 510 671 648 853 51 66 72
85 72 63 0 -7 21 -44 120 -211 5 -8 35 -60 66 -115 31 -55 60 -104 64 -110 4
-5 19 -30 32 -55 35 -63 31 -56 378 -655 171 -297 372 -643 445 -770 72 -126
160 -277 194 -333 33 -57 61 -106 61 -108 0 -2 11 -21 23 -42 13 -20 35 -57
49 -82 14 -25 58 -101 98 -170 40 -69 81 -141 92 -160 11 -19 54 -93 96 -165
41 -71 83 -143 92 -160 9 -16 75 -129 145 -250 70 -121 136 -234 145 -251 19
-33 130 -225 245 -424 40 -69 82 -141 92 -160 22 -39 488 -846 503 -870 17
-29 235 -405 246 -425 6 -11 31 -54 55 -95 25 -41 48 -82 52 -90 4 -8 17 -31
28 -50 12 -19 73 -125 136 -235 64 -110 124 -212 134 -227 11 -15 19 -30 19
-33 0 -3 11 -22 23 -43 13 -20 41 -68 62 -107 21 -38 43 -77 50 -85 7 -8 25
-40 42 -70 26 -48 93 -166 276 -480 27 -47 61 -105 75 -130 14 -25 57 -99 95
-165 38 -66 122 -210 185 -320 63 -110 161 -279 217 -375 56 -96 182 -314 280
-485 98 -170 204 -353 235 -405 31 -52 59 -102 63 -110 4 -8 17 -31 28 -50 12
-19 98 -168 191 -330 94 -162 194 -335 223 -385 90 -153 267 -458 293 -505 14
-25 89 -155 167 -290 79 -135 153 -263 165 -285 13 -22 31 -53 41 -70 11 -16
22 -36 26 -44 3 -8 35 -64 71 -125 36 -61 76 -131 90 -156 14 -25 45 -78 69
-118 24 -41 43 -76 43 -80 0 -3 6 -13 14 -21 7 -9 30 -47 51 -86 21 -38 46
-82 56 -97 11 -14 19 -28 19 -31 0 -2 68 -121 151 -263 83 -143 165 -284 181
-314 17 -30 84 -145 148 -255 64 -110 133 -229 154 -265 20 -36 41 -72 46 -80
57 -97 77 -132 98 -170 14 -25 80 -139 147 -255 67 -115 133 -230 147 -255 14
-25 88 -153 165 -285 76 -132 142 -247 146 -255 4 -8 16 -28 27 -45 11 -16 23
-36 26 -43 4 -7 67 -118 141 -245 75 -128 145 -250 157 -272 13 -22 32 -56 43
-75 11 -19 36 -62 55 -95 19 -33 95 -163 168 -290 73 -126 141 -243 150 -260
9 -16 124 -214 255 -440 131 -225 246 -425 257 -443 32 -57 164 -284 197 -340
17 -29 31 -55 31 -58 0 -3 15 -28 33 -57 18 -29 47 -77 64 -107 16 -30 95
-167 175 -305 80 -137 158 -272 173 -300 15 -27 31 -54 35 -60 17 -22 110
-188 110 -196 0 -5 5 -9 10 -9 6 0 10 -4 10 -10 0 -10 149 -271 203 -357 15
-24 27 -45 27 -48 0 -3 19 -38 43 -78 24 -39 122 -208 218 -374 l174 -303
5539 0 c4914 0 5537 2 5532 15 -3 8 -21 40 -41 70 -19 31 -35 58 -35 60 0 3
-12 24 -27 48 -15 23 -33 51 -39 62 -6 11 -167 283 -359 605 -191 322 -353
594 -359 605 -6 11 -104 175 -217 365 -113 190 -273 458 -355 595 -82 138
-154 259 -161 270 -7 11 -15 27 -19 35 -4 8 -35 60 -69 116 -34 55 -65 107
-69 115 -4 8 -12 23 -19 34 -7 11 -35 58 -63 105 -28 47 -138 231 -244 410
-262 440 -481 810 -500 840 -5 8 -80 134 -166 280 -86 146 -164 276 -173 290
-8 14 -21 34 -26 45 -11 19 -209 352 -583 980 -85 143 -160 269 -166 280 -15
25 -104 175 -116 195 -6 8 -71 119 -146 245 -151 255 -302 509 -321 540 -7 11
-15 27 -19 35 -4 8 -20 34 -36 57 -15 23 -28 44 -28 48 0 3 -12 24 -27 48 -15
23 -75 123 -133 222 -59 99 -150 252 -202 340 -263 441 -412 693 -428 720 -9
17 -58 98 -107 180 -49 83 -156 263 -238 400 -81 138 -178 301 -216 363 -38
61 -69 114 -69 117 0 3 -20 36 -45 75 -25 39 -45 72 -45 74 0 2 -25 46 -57 97
-31 52 -61 103 -67 114 -16 29 -276 465 -295 495 -8 14 -21 34 -27 45 -18 33
-233 394 -282 475 -25 41 -51 84 -57 95 -13 24 -72 124 -85 145 -6 8 -83 139
-173 290 -196 332 -256 432 -279 468 -10 15 -21 34 -25 43 -5 8 -96 162 -203
342 -193 323 -223 374 -256 432 -9 17 -92 156 -184 310 -387 649 -514 862
-530 890 -9 17 -115 194 -235 395 -119 201 -225 379 -235 395 -58 100 -111
189 -257 433 -90 150 -163 277 -163 283 0 5 -4 9 -8 9 -5 0 -14 12 -21 27 -7
15 -105 182 -218 372 -113 190 -256 429 -316 531 -61 102 -130 219 -155 260
-25 41 -51 84 -57 95 -6 11 -32 56 -58 100 -27 44 -52 87 -57 95 -5 8 -32 52
-60 98 -27 46 -50 85 -50 86 0 2 -32 57 -72 122 -39 66 -93 155 -118 199 -26
44 -125 211 -220 370 -95 160 -181 304 -190 320 -10 17 -49 82 -87 146 -38 64
-73 123 -77 130 -8 15 -23 41 -47 79 -9 14 -83 138 -164 275 -82 138 -204 345
-273 460 -69 116 -157 264 -197 330 -39 66 -93 157 -120 203 -28 45 -54 90
-60 100 -23 41 -171 291 -199 337 -17 28 -36 59 -43 70 -25 43 -528 889 -766
1290 -105 176 -197 331 -205 345 -7 14 -22 39 -32 55 -11 17 -26 42 -35 57 -8
15 -83 141 -166 280 -84 139 -160 267 -170 285 -10 17 -29 50 -43 72 -15 22
-26 43 -26 46 0 3 -20 36 -45 75 -25 39 -45 72 -45 74 0 2 -19 35 -42 72 -23
38 -91 152 -151 254 -61 102 -117 197 -126 212 -9 14 -34 57 -55 95 -22 37
-47 79 -56 93 -10 14 -77 126 -150 250 -237 400 -322 545 -339 570 -8 14 -21
34 -27 45 -6 11 -23 40 -38 65 -14 25 -34 60 -43 78 -9 17 -20 32 -25 32 -4 0
-8 4 -8 10 0 5 -33 65 -73 132 -247 413 -343 574 -347 583 -4 8 -159 268 -197
330 -7 11 -15 26 -19 34 -4 7 -66 111 -137 230 -71 119 -138 231 -149 250 -17
30 -62 105 -285 479 -40 67 -73 126 -73 129 0 6 224 307 240 323 7 7 210 275
250 330 29 40 162 217 192 255 10 12 -12 -16 388 511 184 243 345 454 357 470
12 16 38 52 59 79 21 28 109 145 196 260 88 116 164 217 171 225 7 8 104 137
216 285 195 257 386 508 404 530 4 6 89 118 188 250 99 132 185 247 192 255 7
8 118 155 247 325 128 171 236 312 239 315 3 3 17 21 31 40 13 19 28 40 32 45
8 10 49 63 89 115 10 14 53 70 94 125 42 55 81 107 88 115 7 8 99 130 204 270
106 140 261 345 345 455 83 110 284 376 446 590 375 495 523 690 637 840 95
124 344 454 568 750 70 94 133 177 140 185 7 8 48 62 91 120 44 58 143 188
220 290 77 102 184 244 239 315 54 72 108 143 120 159 12 16 138 182 280 370
142 187 269 355 283 373 26 33 305 401 567 748 83 110 161 214 174 230 13 17
27 35 31 40 4 6 28 37 52 70 25 33 47 62 50 65 3 3 17 21 30 40 13 19 27 37
30 40 3 3 52 68 110 145 58 76 111 146 117 155 7 8 89 116 183 240 93 124 173
230 177 235 11 13 374 492 534 705 68 91 126 167 129 170 3 3 26 32 51 65 207
275 493 652 536 707 29 37 53 71 53 77 0 5 4 11 8 13 4 2 57 68 117 148 61 80
112 147 115 150 3 3 21 26 40 53 19 26 42 56 50 66 8 10 66 86 127 167 62 82
217 286 344 454 127 168 240 318 252 334 12 16 54 70 92 121 39 50 80 105 92
121 69 93 227 300 232 304 3 3 11 13 16 22 8 14 236 315 312 413 13 17 27 35
31 40 4 6 28 37 53 70 97 130 452 598 700 923 85 112 163 216 174 232 20 29
217 288 246 325 9 11 68 88 130 170 62 83 117 155 121 160 5 6 47 62 95 125
47 63 97 129 110 146 l23 31 -5574 0 -5575 0 -73 -101 c-40 -56 -78 -107 -85
-114 -7 -8 -18 -23 -24 -35 -7 -11 -16 -26 -20 -31 -17 -20 -64 -84 -79 -106
-8 -12 -20 -28 -25 -34 -9 -9 -53 -71 -180 -246 -11 -15 -34 -48 -51 -71 -30
-44 -417 -575 -523 -720 -31 -42 -63 -87 -71 -99 -8 -12 -23 -33 -34 -47 -10
-13 -70 -95 -132 -181 -62 -86 -117 -161 -121 -167 -5 -5 -224 -307 -487 -670
-264 -363 -496 -682 -516 -710 -21 -27 -106 -144 -189 -260 -84 -115 -161
-221 -171 -235 -20 -27 -138 -189 -228 -314 -31 -43 -86 -118 -122 -167 -36
-49 -94 -130 -130 -180 -36 -49 -102 -140 -147 -201 -46 -61 -83 -114 -83
-118 0 -3 -8 -15 -18 -26 -10 -10 -89 -118 -177 -239 -87 -121 -167 -231 -178
-245 -10 -14 -43 -59 -72 -100 -30 -41 -58 -79 -62 -85 -5 -5 -127 -174 -273
-375 -145 -201 -294 -405 -330 -455 -112 -152 -644 -884 -667 -918 -12 -18
-100 -139 -195 -269 -95 -130 -180 -247 -188 -259 -8 -12 -22 -31 -31 -43 -9
-11 -159 -217 -333 -456 -173 -239 -322 -444 -330 -455 -17 -23 -306 -420
-374 -515 -26 -35 -74 -101 -107 -147 -33 -45 -78 -107 -100 -138 -22 -31 -47
-65 -55 -75 -8 -10 -33 -44 -55 -75 -22 -32 -73 -103 -114 -159 -41 -55 -104
-141 -139 -191 -36 -49 -82 -112 -102 -140 -45 -61 -106 -145 -244 -335 -57
-80 -125 -172 -149 -205 -25 -33 -136 -186 -247 -340 -210 -291 -216 -299
-332 -455 -38 -52 -81 -111 -93 -130 -23 -33 -205 -284 -222 -305 -5 -5 -28
-37 -51 -70 -24 -33 -103 -142 -175 -241 -73 -100 -166 -228 -207 -285 -41
-57 -91 -125 -110 -151 -19 -27 -62 -85 -94 -131 -33 -45 -76 -104 -97 -132
-20 -27 -218 -300 -439 -605 -222 -305 -437 -601 -479 -658 -42 -57 -89 -123
-106 -146 -16 -24 -165 -228 -330 -455 -165 -227 -327 -450 -360 -495 -33 -46
-68 -94 -78 -107 -9 -13 -200 -276 -424 -584 -223 -308 -504 -694 -622 -857
-119 -163 -223 -306 -231 -319 -8 -12 -24 -34 -35 -48 -12 -14 -93 -125 -180
-246 -88 -121 -189 -260 -225 -310 -37 -49 -144 -198 -240 -330 -95 -132 -176
-244 -180 -248 -6 -7 -104 -10 -242 -8 l-38 1 0 9183 0 9184 -5055 0 c-4617 0
-5055 -2 -5056 -16z"/>
<path d="M102052 69271 c0 -8121 -3 -14863 -6 -14981 -3 -118 -8 -264 -11
-325 -9 -211 -16 -360 -20 -425 -18 -273 -22 -326 -30 -417 -3 -35 -8 -93 -11
-130 -3 -38 -7 -84 -9 -103 -7 -63 -14 -134 -20 -185 -12 -115 -16 -152 -20
-185 -2 -19 -7 -59 -10 -89 -4 -30 -8 -61 -10 -70 -1 -9 -6 -45 -11 -81 -4
-36 -8 -67 -9 -70 -1 -3 -5 -30 -9 -60 -13 -92 -14 -102 -32 -205 -9 -55 -18
-109 -19 -120 -2 -11 -6 -35 -9 -52 -3 -18 -8 -48 -12 -65 -3 -18 -11 -64 -19
-103 -8 -38 -17 -83 -19 -100 -7 -38 -82 -376 -96 -430 -6 -22 -13 -51 -16
-65 -2 -14 -7 -32 -10 -40 -3 -8 -15 -49 -25 -90 -21 -79 -41 -147 -86 -295
-15 -49 -28 -94 -29 -100 -1 -5 -27 -80 -58 -165 -31 -85 -58 -159 -59 -165
-9 -34 -98 -249 -157 -380 -64 -143 -224 -453 -261 -507 -11 -14 -19 -29 -19
-33 0 -6 -31 -54 -146 -230 -176 -270 -469 -603 -719 -819 -317 -275 -715
-517 -1110 -675 -72 -29 -139 -56 -150 -61 -18 -8 -243 -83 -255 -85 -3 -1
-30 -8 -60 -17 -72 -22 -277 -75 -313 -82 -15 -2 -35 -7 -45 -10 -9 -3 -28 -7
-42 -10 -14 -3 -71 -14 -127 -25 -56 -11 -122 -23 -145 -26 -24 -3 -50 -8 -58
-10 -8 -2 -39 -7 -69 -10 -30 -4 -61 -8 -70 -10 -16 -3 -93 -12 -161 -20 -100
-11 -142 -15 -210 -20 -41 -3 -91 -7 -110 -10 -161 -18 -830 -26 -1035 -11
-165 11 -200 15 -400 42 -27 3 -59 8 -70 10 -10 2 -35 6 -55 9 -20 3 -47 7
-60 10 -14 3 -52 10 -85 16 -204 36 -738 182 -840 229 -11 5 -56 23 -100 39
-445 161 -981 446 -1426 757 -402 281 -686 521 -1065 899 -273 272 -459 479
-676 750 -44 55 -88 109 -97 120 -132 162 -641 891 -641 920 0 3 -5 11 -11 18
-23 26 -253 416 -340 575 -18 34 -36 62 -39 62 -3 0 -101 -71 -218 -157 -116
-87 -221 -165 -233 -173 -11 -8 -109 -81 -217 -161 -109 -80 -280 -207 -382
-282 -102 -75 -189 -140 -195 -144 -5 -5 -174 -130 -375 -278 -201 -148 -395
-292 -432 -320 -36 -27 -76 -57 -88 -65 -12 -8 -67 -49 -123 -91 -56 -42 -158
-118 -227 -168 -69 -51 -136 -101 -150 -111 -26 -20 -340 -252 -381 -282 -70
-51 -445 -329 -514 -380 -95 -70 -375 -278 -686 -508 -123 -91 -296 -219 -385
-285 -89 -66 -220 -163 -291 -215 -292 -215 -639 -473 -658 -487 -5 -5 -64
-48 -130 -96 -66 -49 -132 -98 -148 -109 -49 -38 -668 -495 -858 -636 -133
-97 -185 -141 -181 -152 3 -8 23 -44 44 -79 21 -34 38 -64 38 -66 0 -7 276
-465 355 -590 17 -27 56 -88 85 -135 228 -362 748 -1112 903 -1300 7 -8 26
-33 42 -55 17 -22 35 -45 40 -52 6 -7 15 -18 20 -25 77 -99 247 -312 269 -338
11 -14 39 -47 61 -75 22 -27 42 -52 45 -55 3 -3 41 -48 85 -100 44 -52 85
-100 90 -106 8 -9 62 -70 148 -168 11 -12 40 -45 65 -75 26 -30 59 -66 73 -80
14 -14 90 -95 169 -179 261 -280 655 -665 899 -881 35 -31 69 -61 75 -67 6 -5
65 -57 131 -113 66 -57 132 -113 146 -126 14 -12 66 -55 115 -95 49 -40 109
-88 133 -109 42 -34 323 -251 387 -298 16 -12 49 -36 74 -55 403 -303 1113
-754 1562 -991 46 -24 101 -54 123 -67 56 -32 494 -250 590 -295 44 -20 150
-68 235 -106 85 -38 169 -76 185 -83 120 -55 517 -214 690 -276 50 -18 99 -36
110 -40 65 -26 135 -51 350 -122 132 -44 246 -82 255 -84 8 -2 89 -26 180 -54
91 -28 206 -63 255 -76 123 -35 197 -55 215 -60 8 -2 49 -13 90 -23 91 -24
239 -61 260 -66 8 -1 33 -8 55 -13 22 -6 51 -13 65 -16 14 -3 115 -26 225 -51
110 -25 214 -48 230 -51 17 -3 82 -16 145 -29 63 -13 142 -29 175 -35 33 -5
71 -12 85 -15 78 -15 251 -45 290 -50 25 -3 52 -7 60 -10 8 -2 33 -6 55 -10
54 -8 164 -25 194 -30 13 -2 45 -7 70 -11 25 -3 57 -7 71 -9 73 -11 199 -27
225 -30 17 -2 64 -8 105 -14 96 -13 164 -21 220 -26 25 -2 63 -7 85 -10 22 -2
63 -7 90 -10 28 -3 68 -7 90 -10 22 -2 72 -7 110 -10 39 -3 88 -8 110 -10 64
-7 249 -21 380 -30 44 -3 107 -7 140 -10 750 -56 1920 -65 2675 -21 225 13
421 27 570 41 141 13 179 16 220 20 25 3 70 7 100 10 30 3 71 8 90 10 19 2 60
7 90 10 95 11 333 41 390 50 14 2 61 9 106 15 44 6 89 12 100 14 19 4 85 14
134 21 29 5 204 34 240 41 14 2 41 7 60 10 19 3 42 7 50 9 8 3 33 7 55 11 22
3 117 21 210 41 167 34 184 37 235 48 14 3 34 7 45 9 78 16 237 54 460 111
350 90 348 89 450 120 50 14 133 39 185 55 301 89 913 302 1067 371 23 11 45
19 48 19 10 0 438 183 545 232 52 25 129 60 170 79 87 40 487 241 575 289 33
18 78 43 100 55 101 55 231 129 266 151 21 13 40 24 43 24 11 0 376 229 566
354 323 215 593 412 895 655 130 104 377 312 405 341 8 8 38 35 65 59 140 123
290 266 480 456 251 252 334 340 550 585 22 25 42 47 45 50 3 3 27 32 55 65
27 33 52 62 55 65 40 39 312 384 473 600 221 298 344 475 569 825 53 82 275
452 307 510 12 22 32 58 45 80 12 22 42 76 66 120 24 44 46 85 50 90 9 13 141
267 219 423 97 193 188 387 336 717 216 484 474 1197 679 1875 27 91 133 470
141 504 2 12 29 118 59 236 31 118 58 230 61 249 3 18 8 37 10 41 3 5 10 30
15 57 14 73 19 93 24 111 3 9 7 28 10 42 2 14 14 70 26 125 29 135 30 142 65
315 3 14 8 40 11 59 3 18 8 43 10 55 6 25 22 110 28 146 2 14 15 88 29 165 14
77 28 158 32 180 3 22 10 67 16 100 6 33 13 73 15 88 6 48 15 110 25 177 6 36
12 76 14 90 21 156 27 199 30 220 2 14 7 50 10 80 3 30 8 66 10 80 2 14 7 50
10 80 3 30 7 71 10 90 2 19 7 60 10 90 3 30 8 71 10 90 2 19 7 60 10 90 3 30
7 71 10 90 4 35 11 108 20 225 3 33 7 80 10 105 2 25 7 83 10 130 3 47 8 105
10 130 2 25 7 92 10 150 4 58 8 125 10 150 3 39 9 148 20 390 2 36 7 173 12
305 4 132 8 7089 8 15460 l0 15220 -5056 1 -5056 1 -1 -14766z"/>
<path d="M63068 54924 c-2 -1 -79 -5 -173 -9 -93 -4 -186 -8 -205 -10 -19 -2
-73 -6 -120 -10 -139 -10 -193 -15 -230 -20 -19 -2 -60 -7 -90 -10 -30 -4 -66
-8 -80 -10 -14 -2 -61 -9 -105 -15 -44 -6 -91 -13 -105 -15 -14 -3 -43 -7 -65
-11 -35 -5 -315 -60 -355 -69 -818 -188 -1536 -527 -2020 -953 -210 -185 -387
-381 -533 -592 -35 -50 -127 -198 -127 -203 0 -3 -15 -31 -33 -64 -34 -61
-137 -284 -137 -297 0 -5 -6 -22 -14 -39 -44 -102 -142 -439 -161 -557 -2 -14
-10 -68 -19 -120 -51 -322 -54 -720 -7 -1000 6 -36 13 -83 16 -105 22 -142
111 -443 181 -614 77 -186 252 -519 378 -721 16 -25 43 -67 60 -95 228 -364
726 -1025 1153 -1533 l104 -124 -178 -97 c-778 -424 -1447 -876 -1903 -1285
-115 -103 -415 -412 -501 -516 -168 -202 -325 -428 -436 -625 -47 -84 -173
-339 -173 -350 0 -3 -9 -24 -19 -48 -27 -61 -65 -162 -91 -242 -24 -77 -96
-353 -103 -400 -3 -16 -10 -57 -15 -90 -41 -230 -50 -366 -46 -685 1 -162 6
-315 9 -340 42 -322 53 -385 101 -568 33 -128 93 -322 113 -367 5 -11 22 -51
37 -90 30 -78 145 -317 197 -410 204 -363 539 -751 897 -1039 145 -116 413
-298 575 -391 266 -153 652 -321 970 -422 61 -19 119 -39 130 -43 95 -39 683
-180 895 -215 19 -3 42 -8 50 -10 8 -2 38 -6 65 -10 28 -3 57 -8 65 -10 16 -4
34 -7 170 -25 123 -17 131 -18 201 -26 35 -3 75 -8 89 -9 14 -2 61 -6 105 -9
44 -4 100 -9 125 -11 53 -5 225 -14 360 -20 112 -5 705 -5 770 -1 25 2 110 7
190 10 80 4 163 9 185 11 22 2 76 7 120 11 164 13 235 22 515 60 19 2 60 9 90
14 30 5 73 12 95 16 103 15 498 99 660 139 99 25 189 47 200 50 11 2 58 16
105 30 47 14 110 33 140 41 120 33 544 179 625 215 11 5 61 24 110 43 259 98
680 300 965 463 19 11 69 40 110 63 173 98 441 265 670 418 135 91 250 166
256 169 6 2 87 -49 180 -115 322 -226 820 -562 834 -562 4 0 10 -4 12 -8 4
-11 386 -248 603 -374 436 -254 817 -440 1100 -536 190 -65 330 -100 525 -132
95 -15 156 -18 355 -15 132 2 255 6 273 9 18 3 52 8 75 11 143 21 283 60 364
103 51 27 108 84 134 134 43 84 68 288 68 558 0 63 0 124 1 135 2 45 -1 217
-5 267 -12 168 -58 310 -118 366 -32 30 -128 60 -175 55 -124 -11 -353 -10
-412 2 -94 20 -214 58 -305 95 -104 43 -359 174 -499 257 -177 105 -343 205
-451 272 -55 34 -109 68 -119 74 -121 75 -364 232 -495 321 -90 61 -171 115
-180 121 -9 5 -39 27 -68 47 -29 21 -56 38 -62 38 -5 0 -11 3 -13 8 -1 4 -58
46 -124 92 l-121 85 82 100 c251 306 530 719 722 1070 201 368 350 713 488
1130 119 358 198 650 261 960 2 11 6 31 9 45 17 80 52 290 60 355 3 28 7 64
10 80 5 35 12 94 21 185 3 36 7 79 9 95 10 83 19 370 19 615 0 302 -7 355 -62
431 -53 73 -163 128 -301 150 -36 5 -77 12 -90 14 -141 25 -944 24 -1121 -1
-241 -33 -340 -70 -425 -160 -74 -77 -79 -105 -81 -464 -2 -286 -9 -508 -19
-615 -11 -115 -17 -173 -21 -200 -2 -16 -6 -48 -8 -70 -13 -115 -65 -407 -87
-490 -6 -22 -13 -51 -15 -65 -30 -170 -193 -658 -314 -935 -166 -381 -287
-600 -520 -940 -14 -20 -114 -147 -135 -172 -7 -8 -19 -4 -45 15 -19 14 -37
29 -40 32 -3 4 -61 51 -130 106 -68 54 -132 106 -141 114 -9 8 -58 49 -109 90
-82 66 -380 311 -435 358 -11 9 -47 39 -80 65 -33 27 -62 52 -65 55 -3 4 -26
24 -52 45 -26 21 -53 43 -60 50 -7 7 -53 46 -103 87 -88 74 -110 93 -150 129
-11 10 -103 89 -205 176 -102 87 -187 161 -190 164 -3 3 -43 40 -90 81 -47 41
-103 91 -124 110 -22 19 -69 62 -105 94 -37 33 -89 80 -117 105 -42 39 -191
175 -294 271 -15 14 -75 70 -135 125 -330 306 -505 475 -965 935 -443 442
-694 700 -688 705 2 2 30 15 63 30 33 15 227 110 430 211 977 485 1677 893
2232 1301 129 94 381 292 419 328 6 5 42 37 80 70 123 108 323 303 399 389 17
18 138 161 160 187 98 117 262 367 342 519 96 184 200 465 239 645 9 39 18 79
20 90 14 61 25 127 30 180 4 33 8 63 10 66 16 28 25 521 12 679 -41 489 -203
942 -470 1319 -33 46 -64 89 -69 95 -5 6 -17 20 -27 32 -76 93 -226 249 -302
314 -14 12 -36 31 -50 43 -100 88 -335 250 -470 327 -427 241 -1020 438 -1600
531 -175 28 -168 27 -235 34 -33 3 -67 8 -75 10 -8 2 -46 6 -85 10 -38 3 -88
8 -110 10 -62 7 -163 15 -245 20 -41 2 -111 7 -155 11 -77 6 -882 14 -887 8z
m473 -1558 c160 -10 372 -35 429 -51 8 -2 35 -7 60 -10 72 -10 297 -71 400
-109 159 -57 200 -75 325 -140 350 -183 607 -446 734 -751 89 -212 120 -376
116 -613 -3 -178 -4 -193 -36 -347 -35 -169 -113 -375 -200 -525 -36 -62 -143
-216 -200 -287 -106 -131 -368 -387 -535 -521 -325 -263 -880 -620 -1374 -885
-41 -22 -79 -43 -85 -47 -5 -5 -64 -36 -130 -70 -66 -35 -145 -77 -175 -94
-103 -58 -589 -301 -593 -296 -177 216 -528 666 -656 845 -52 72 -106 146
-121 165 -120 158 -394 602 -495 802 -134 265 -231 549 -261 763 -3 28 -8 59
-10 70 -24 127 -21 415 5 551 27 138 90 360 111 389 4 6 12 25 18 43 6 18 35
74 63 125 196 348 545 630 979 791 41 16 84 32 95 37 34 14 218 68 254 74 19
3 37 8 40 10 15 9 271 51 371 60 36 4 76 8 90 11 14 2 86 7 160 10 74 4 136 7
137 8 5 4 395 -3 484 -8z m-2023 -6863 c40 -45 233 -250 322 -343 204 -213
581 -586 830 -820 20 -19 104 -99 186 -176 82 -78 165 -156 184 -174 87 -81
227 -210 246 -227 26 -22 199 -180 228 -208 44 -41 254 -231 312 -282 12 -10
54 -48 95 -84 41 -37 119 -106 174 -154 55 -48 114 -100 130 -114 54 -48 520
-445 570 -486 27 -22 53 -45 59 -50 6 -6 36 -30 66 -55 30 -25 57 -47 60 -50
32 -35 784 -637 1092 -875 136 -104 247 -193 247 -197 1 -12 -247 -185 -419
-293 -19 -12 -53 -33 -75 -48 -143 -92 -566 -318 -720 -384 -27 -12 -81 -35
-120 -51 -38 -17 -108 -44 -155 -62 -47 -17 -94 -35 -105 -40 -36 -15 -377
-126 -415 -135 -8 -1 -58 -15 -110 -29 -119 -32 -432 -101 -525 -116 -109 -17
-129 -20 -145 -25 -8 -2 -42 -7 -75 -10 -33 -3 -73 -8 -90 -10 -72 -10 -126
-15 -215 -20 -52 -4 -111 -8 -130 -11 -43 -5 -540 -5 -630 0 -170 10 -295 19
-300 21 -3 2 -45 6 -95 10 -49 4 -92 9 -95 10 -3 2 -26 6 -50 10 -195 27 -328
54 -505 100 -121 32 -324 94 -370 114 -11 5 -63 26 -115 46 -132 52 -366 170
-483 243 -598 376 -979 924 -1106 1592 -35 185 -45 298 -45 515 0 203 6 271
51 528 10 61 65 246 100 337 91 239 237 485 429 725 82 102 349 378 454 470
284 247 581 463 915 664 66 39 127 76 135 81 8 6 24 14 35 20 11 5 45 25 75
44 30 19 57 35 59 35 3 1 20 -16 39 -36z"/>
<path d="M19048 34045 c-2 -1 -32 -5 -68 -9 -227 -20 -490 -94 -700 -194 -168
-81 -264 -142 -420 -267 -67 -53 -253 -250 -312 -328 -56 -76 -185 -279 -197
-312 -2 -5 -15 -32 -28 -60 -100 -206 -192 -514 -218 -735 -3 -25 -8 -54 -10
-65 -26 -128 -27 -693 0 -833 1 -9 6 -42 10 -72 3 -30 11 -71 15 -90 5 -19 12
-53 16 -75 9 -60 58 -238 94 -340 30 -84 130 -299 182 -390 98 -171 284 -386
448 -517 55 -45 235 -168 244 -168 3 0 27 -13 53 -28 162 -95 472 -195 708
-228 115 -15 162 -18 345 -19 186 0 290 6 375 20 418 73 765 225 1028 449 l77
67 0 1009 0 1010 -799 0 -798 0 0 -329 c0 -232 3 -331 11 -334 6 -2 199 -3
429 -2 250 0 421 -3 424 -9 4 -5 6 -226 6 -492 l0 -482 -29 -25 c-42 -35 -129
-81 -209 -110 -201 -73 -436 -88 -707 -46 -36 6 -73 12 -82 13 -8 1 -19 5 -22
9 -4 4 -17 7 -28 7 -36 1 -183 57 -271 104 -414 220 -655 658 -702 1276 -16
206 -5 520 22 646 3 12 7 39 11 60 3 21 12 66 20 99 113 452 353 778 701 954
53 26 186 78 223 86 189 43 378 58 505 42 22 -3 65 -9 95 -13 79 -9 248 -67
343 -116 87 -45 246 -160 312 -225 l40 -40 125 151 c69 83 135 162 147 176 12
14 53 64 92 113 l71 88 -52 50 c-203 194 -445 341 -703 427 -160 54 -202 63
-405 91 -60 8 -404 13 -412 6z"/>
<path d="M62979 34045 c-2 -2 -33 -6 -69 -9 -63 -6 -98 -11 -150 -21 -14 -3
-38 -8 -55 -10 -89 -15 -288 -77 -410 -129 -146 -61 -325 -166 -449 -263 -104
-82 -280 -264 -362 -373 -86 -116 -211 -322 -202 -333 2 -2 -2 -10 -9 -18 -33
-40 -143 -336 -169 -454 -1 -5 -7 -28 -12 -50 -6 -22 -14 -55 -17 -74 -3 -19
-7 -37 -9 -40 -2 -3 -7 -26 -10 -51 -3 -25 -8 -56 -11 -70 -37 -202 -42 -690
-9 -920 16 -110 38 -227 60 -315 27 -107 92 -314 103 -330 4 -5 20 -41 36 -80
46 -110 150 -292 224 -390 299 -399 714 -658 1211 -756 58 -11 114 -22 124
-24 56 -12 213 -20 386 -19 214 0 254 4 455 40 325 58 704 238 936 444 l59 53
0 1008 0 1009 -798 0 -798 0 -1 -330 c0 -232 3 -330 11 -331 6 -1 198 -2 428
-3 229 0 420 -4 424 -8 5 -6 10 -875 5 -968 -1 -8 -29 -34 -63 -57 -155 -104
-356 -154 -608 -154 -566 2 -980 250 -1203 721 -42 88 -91 224 -102 278 -2 12
-6 26 -9 30 -3 5 -7 22 -10 38 -6 30 -22 114 -30 149 -5 25 -16 126 -25 229
-8 96 -6 400 3 476 36 292 87 482 182 675 38 76 116 208 134 225 3 3 17 21 31
40 80 107 249 246 384 317 188 97 382 143 615 144 256 2 474 -62 682 -197 67
-44 219 -169 226 -186 9 -20 31 -1 89 70 34 42 74 93 91 112 16 19 78 94 137
165 59 72 114 137 122 147 13 14 8 22 -49 76 -121 115 -221 190 -358 269 -80
46 -110 61 -222 112 -94 42 -304 99 -430 117 -16 2 -43 7 -60 10 -36 7 -444
15 -449 9z"/>
<path d="M71949 34046 c-2 -2 -29 -6 -59 -10 -196 -23 -402 -107 -555 -227
-36 -29 -142 -134 -170 -169 -324 -411 -328 -976 -12 -1620 28 -58 51 -108 52
-112 0 -3 -43 -37 -95 -73 -116 -82 -277 -214 -344 -281 -156 -158 -262 -308
-333 -478 -33 -77 -44 -115 -64 -206 -5 -25 -12 -56 -15 -70 -13 -52 -12 -317
1 -400 45 -297 171 -530 397 -736 145 -132 353 -238 588 -299 36 -9 74 -18 85
-20 11 -2 40 -6 65 -10 25 -4 56 -9 70 -12 55 -12 408 -10 500 2 166 23 195
27 201 31 3 2 21 6 40 9 62 11 211 57 297 92 205 82 354 167 540 310 l44 33
27 -19 c121 -86 454 -257 651 -334 174 -68 415 -141 430 -132 4 3 11 17 14 32
4 16 24 84 46 153 21 69 62 199 90 289 27 90 53 167 56 172 3 5 -1 9 -9 9 -28
0 -193 52 -292 91 -122 49 -303 140 -431 215 l-94 55 30 42 c72 100 222 331
280 432 68 118 199 378 245 485 15 36 36 84 46 106 10 23 21 54 25 68 3 14 10
29 15 32 5 3 9 13 9 22 0 9 6 29 14 44 8 15 17 42 21 60 4 18 12 42 18 53 6
11 12 25 13 30 1 6 14 48 29 95 15 47 29 93 32 102 5 15 -23 17 -366 17 l-371
0 -11 -42 c-21 -80 -97 -303 -139 -406 -96 -241 -253 -526 -399 -723 l-34 -47
-61 50 c-248 203 -279 231 -501 454 -182 181 -236 241 -383 424 l-93 116 28
22 c15 13 95 72 177 133 651 482 860 874 761 1425 -19 106 -86 257 -157 353
-177 240 -460 367 -821 370 -69 1 -126 0 -128 -2z m212 -550 c116 -21 197 -83
242 -186 82 -183 54 -413 -71 -599 -53 -77 -209 -226 -318 -301 -220 -154
-235 -162 -250 -143 -7 10 -14 21 -14 25 0 4 -11 32 -25 61 -36 81 -92 251
-112 347 -22 103 -24 318 -4 400 22 90 78 196 138 260 63 69 167 126 248 136
28 3 51 7 53 9 4 4 79 -2 113 -9z m-556 -2214 c27 -37 55 -74 62 -82 216 -270
310 -375 534 -599 135 -134 160 -158 309 -290 52 -46 101 -89 108 -96 11 -10
-2 -22 -66 -63 -166 -106 -340 -178 -498 -205 -79 -14 -247 -15 -314 -3 -133
25 -297 94 -367 154 -15 13 -35 29 -43 36 -60 45 -140 166 -178 266 -28 76
-33 109 -37 225 -6 157 40 298 143 438 50 69 267 287 285 287 7 0 34 -30 62
-68z"/>
<path d="M93357 34044 c-1 -2 -29 -5 -62 -8 -51 -4 -117 -16 -242 -42 -51 -10
-208 -66 -285 -101 -419 -189 -696 -531 -762 -942 -24 -142 -18 -294 17 -481
9 -45 57 -180 83 -233 127 -253 366 -474 681 -631 62 -31 114 -56 117 -56 4 0
279 -118 362 -155 16 -8 68 -30 114 -50 46 -20 98 -42 114 -50 17 -7 92 -39
166 -71 240 -103 362 -174 452 -267 94 -96 136 -207 136 -359 0 -212 -99 -371
-300 -482 -27 -14 -48 -23 -48 -20 0 4 -6 2 -12 -4 -12 -9 -108 -39 -153 -48
-11 -2 -31 -6 -45 -8 -136 -26 -315 -24 -485 5 -276 47 -598 205 -855 418 -47
39 -87 71 -90 71 -3 -1 -24 -24 -48 -53 -23 -29 -56 -68 -73 -87 -46 -52 -68
-79 -129 -150 -30 -36 -58 -67 -61 -70 -3 -3 -34 -39 -69 -80 -35 -41 -70 -83
-78 -93 -14 -16 -11 -22 43 -70 124 -111 221 -182 400 -294 52 -33 208 -109
304 -148 163 -67 392 -130 546 -151 27 -3 61 -8 75 -11 53 -9 439 -11 505 -2
143 18 186 25 305 53 506 119 904 466 1044 911 65 208 76 448 31 675 -3 14 -7
34 -9 45 -11 52 -72 207 -107 271 -128 234 -364 435 -684 584 -81 38 -366 158
-585 247 -47 19 -101 41 -120 50 -65 28 -75 32 -165 69 -180 73 -333 159 -421
236 -43 38 -104 127 -129 188 -23 59 -29 220 -10 284 59 194 200 317 430 375
295 74 646 24 942 -136 86 -45 181 -108 257 -167 33 -25 64 -46 70 -46 6 1 31
28 56 61 25 33 52 68 60 77 8 9 31 37 50 62 19 25 37 47 40 50 15 14 191 242
196 254 8 20 -147 152 -281 241 -353 234 -717 344 -1127 343 -87 -1 -159 -2
-161 -4z"/>
<path d="M103245 34039 c-839 -101 -1459 -587 -1750 -1373 -34 -93 -99 -329
-111 -404 -3 -19 -7 -42 -9 -51 -30 -164 -40 -295 -40 -546 0 -202 6 -335 21
-433 62 -421 166 -717 367 -1037 25 -40 102 -141 151 -199 299 -351 747 -588
1251 -662 182 -27 554 -26 710 1 17 2 44 7 60 9 17 3 41 7 55 10 388 83 718
242 963 465 l37 34 0 1009 0 1008 -798 0 -798 0 -1 -330 c0 -232 3 -330 11
-331 6 -1 198 -2 428 -3 229 0 420 -4 424 -8 4 -4 7 -226 7 -492 l0 -485 -24
-21 c-85 -71 -275 -147 -415 -165 -22 -3 -55 -7 -74 -10 -91 -13 -301 -6 -435
16 -123 19 -279 70 -390 127 -314 161 -531 451 -644 862 -11 38 -18 70 -15 70
3 0 1 8 -5 18 -5 9 -12 40 -15 67 -4 28 -9 59 -12 70 -25 109 -37 494 -21 670
57 617 328 1074 761 1286 183 88 379 132 601 132 75 0 225 -16 267 -29 9 -3
27 -7 39 -9 32 -6 119 -34 154 -50 17 -7 44 -19 60 -26 88 -39 235 -141 338
-235 27 -24 52 -44 55 -43 4 0 57 61 117 136 61 74 115 141 120 147 6 6 42 49
80 96 38 47 72 87 75 90 45 44 45 44 -22 108 -121 115 -221 190 -358 269 -80
46 -110 61 -222 112 -95 42 -303 99 -433 117 -16 3 -43 7 -60 10 -50 10 -425
12 -500 3z"/>
<path d="M5270 31680 l0 -2290 1415 0 1415 0 -2 343 -3 342 -995 1 c-547 1
-1000 2 -1006 3 -8 1 -11 196 -11 676 l0 675 822 0 823 0 0 340 c0 187 -2 341
-6 341 -4 1 -374 2 -822 3 l-815 1 -1 585 -1 585 961 -1 c529 0 967 2 974 4 9
3 12 81 12 343 l0 339 -1380 0 -1380 0 0 -2290z"/>
<path d="M10880 31680 l0 -2290 388 2 387 3 0 1110 c0 991 -4 1238 -20 1450
-12 160 -17 223 -20 255 -2 19 -6 71 -10 115 -3 44 -8 94 -10 110 -2 17 -7 71
-11 120 -4 50 -8 104 -9 120 -2 17 -6 66 -9 110 -4 44 -8 97 -11 118 -4 28 -1
37 10 37 10 0 41 -53 86 -147 40 -82 103 -213 141 -293 39 -80 94 -194 123
-255 92 -192 160 -327 212 -420 82 -147 288 -518 328 -590 41 -75 99 -180 127
-230 16 -27 44 -79 63 -115 19 -36 39 -72 45 -80 17 -26 190 -341 190 -346 0
-2 11 -21 23 -42 13 -20 42 -71 64 -112 22 -41 129 -235 238 -430 109 -195
214 -385 234 -422 l36 -68 417 0 418 0 0 2290 0 2290 -389 0 -390 0 4 -1182
c2 -651 6 -1201 8 -1223 3 -22 8 -85 12 -140 3 -55 8 -127 10 -160 10 -118 16
-191 20 -230 3 -22 7 -72 9 -110 5 -68 13 -159 21 -240 4 -35 7 -76 20 -227 6
-75 -24 -41 -97 110 -39 81 -102 212 -140 292 -39 80 -90 188 -115 240 -94
198 -174 353 -295 570 -69 124 -142 257 -163 295 -21 39 -41 75 -45 80 -4 6
-23 39 -42 75 -57 104 -89 163 -108 195 -10 17 -37 66 -60 110 -24 44 -52 96
-63 115 -35 62 -262 470 -344 620 -45 80 -123 222 -175 315 -52 94 -109 197
-128 230 -18 33 -50 92 -72 130 -21 39 -46 85 -55 103 l-17 32 -418 0 -418 0
0 -2290z"/>
<path d="M23550 31680 l0 -2290 408 0 407 0 0 2290 0 2290 -407 0 -408 0 0
-2290z"/>
<path d="M27370 31680 l0 -2290 390 0 391 0 -5 1178 c-2 647 -7 1204 -10 1237
-3 33 -8 103 -11 155 -4 52 -8 111 -10 130 -1 20 -6 76 -10 125 -4 50 -9 104
-11 122 -2 17 -6 64 -9 105 -3 40 -8 91 -10 113 -8 76 -14 150 -20 235 -3 47
-8 100 -10 118 -4 24 -1 32 10 32 9 0 40 -52 81 -137 37 -76 102 -212 146
-303 44 -91 100 -205 123 -255 113 -237 153 -315 310 -595 50 -91 110 -200
133 -242 23 -42 67 -120 97 -174 30 -53 55 -98 55 -100 0 -2 20 -38 45 -80 25
-41 45 -78 45 -80 0 -2 32 -61 72 -132 39 -70 81 -145 93 -167 29 -53 66 -120
97 -175 14 -25 65 -117 113 -205 93 -168 113 -205 150 -270 12 -22 72 -130
133 -240 60 -110 124 -225 141 -255 18 -30 41 -74 53 -97 l22 -43 418 0 418 0
0 2290 0 2290 -387 -2 -388 -3 0 -1105 c0 -967 6 -1354 20 -1441 2 -13 6 -76
10 -139 3 -63 8 -128 10 -145 3 -16 7 -61 10 -100 6 -79 13 -156 20 -230 5
-52 10 -106 20 -235 3 -41 8 -92 10 -112 3 -29 0 -38 -11 -38 -14 0 -40 51
-224 435 -205 429 -284 588 -329 663 -17 29 -31 55 -31 57 0 2 -17 34 -39 72
-21 37 -53 95 -71 128 -18 33 -42 76 -53 95 -23 41 -44 78 -119 215 -31 55
-64 116 -75 136 -11 19 -81 145 -156 280 -74 134 -166 301 -205 371 -39 69
-86 155 -105 190 -32 58 -61 111 -110 198 -27 48 -261 471 -333 602 l-59 107
-417 1 -418 0 0 -2290z"/>
<path d="M33800 31680 l0 -2290 1415 0 1415 0 -2 343 -3 342 -1006 0 -1007 0
0 677 1 678 822 0 822 0 0 343 0 342 -821 0 -821 0 -1 580 c-1 319 2 582 6
585 5 3 442 5 973 5 l966 0 0 342 -1 343 -1379 0 -1379 0 0 -2290z"/>
<path d="M39410 31680 l0 -2290 1414 0 1415 0 -2 343 -2 342 -1005 0 -1005 0
-1 678 -1 677 823 0 823 0 -1 340 c0 246 -3 340 -12 341 -6 1 -375 2 -821 3
l-810 1 -1 585 -1 585 971 0 971 0 3 343 2 342 -1380 0 -1380 0 0 -2290z"/>
<path d="M45010 31681 l0 -2291 405 0 405 0 1 23 c0 12 1 415 1 895 l1 872
350 -2 351 -3 34 -60 c19 -33 52 -94 74 -135 23 -41 44 -79 48 -85 4 -5 25
-44 47 -85 22 -41 85 -156 140 -255 55 -99 116 -209 135 -245 20 -36 82 -148
138 -250 98 -177 125 -226 193 -350 16 -30 61 -110 98 -178 38 -67 69 -127 69
-132 0 -6 172 -10 461 -10 253 0 458 4 455 8 -41 67 -723 1263 -740 1299 -6
13 -14 23 -18 23 -5 0 -8 4 -8 9 0 5 -32 65 -71 133 -70 120 -103 178 -142
248 -10 19 -36 65 -58 101 -21 36 -39 71 -41 78 -2 7 27 24 69 40 427 168 706
496 797 936 24 117 28 164 31 322 7 542 -182 917 -580 1150 -91 53 -279 126
-410 159 -16 4 -34 8 -40 10 -16 4 -246 42 -300 50 -27 3 -465 8 -972 11
l-923 4 0 -2290z m1730 1626 c19 -3 55 -9 78 -12 24 -4 54 -9 65 -11 12 -3 32
-7 45 -10 48 -10 188 -65 214 -84 15 -11 32 -20 38 -20 6 0 43 -33 83 -72 125
-127 170 -249 171 -473 1 -161 -4 -195 -39 -302 -97 -287 -347 -451 -750 -490
-44 -5 -246 -8 -450 -8 l-370 0 -1 749 -1 748 441 -5 c243 -2 457 -7 476 -10z"/>
<path d="M51000 31680 l0 -2290 405 0 405 0 1 33 c0 17 1 1047 1 2287 l1 2255
-407 3 -406 2 0 -2290z"/>
<path d="M54810 31680 l0 -2290 389 0 390 0 -4 1183 c-2 650 -6 1205 -9 1232
-2 28 -7 88 -10 135 -3 47 -8 108 -10 135 -2 28 -7 88 -11 135 -3 47 -8 101
-10 120 -2 19 -6 69 -9 110 -3 41 -8 84 -10 95 -2 11 -7 67 -11 125 -4 58 -9
112 -10 120 -2 8 -5 46 -6 84 -7 134 3 118 226 -349 250 -523 268 -559 425
-840 37 -66 81 -145 97 -175 16 -30 61 -111 100 -180 38 -69 83 -150 100 -180
17 -30 41 -75 55 -100 25 -45 513 -925 571 -1030 70 -128 88 -160 141 -254 31
-54 56 -100 56 -101 0 -2 24 -45 53 -97 28 -51 61 -110 72 -131 l20 -37 417 0
418 0 0 2290 0 2290 -389 0 -389 0 3 -1182 c2 -651 6 -1199 8 -1218 3 -19 8
-87 12 -150 3 -63 8 -133 10 -155 5 -54 16 -191 20 -240 2 -22 6 -69 9 -105 9
-98 16 -169 20 -225 11 -122 18 -203 22 -237 3 -29 0 -38 -12 -38 -14 0 -44
59 -209 405 -24 50 -89 185 -145 300 -56 116 -111 230 -123 255 -12 25 -41 78
-64 118 -24 40 -43 74 -43 76 0 2 -17 35 -39 73 -62 110 -92 165 -124 223 -16
30 -38 69 -47 85 -10 17 -32 57 -50 90 -34 63 -64 117 -104 188 -49 87 -169
304 -204 367 -33 61 -100 182 -152 275 -74 133 -297 535 -373 673 -18 32 -77
140 -132 240 l-100 182 -417 0 -418 0 0 -2290z"/>
<path d="M80280 31680 l0 -2291 773 4 c424 2 786 7 803 9 17 3 57 9 89 13 33
4 67 8 76 10 9 2 32 6 50 9 19 3 45 8 59 11 14 3 39 8 55 11 17 3 68 16 115
29 514 148 884 434 1133 876 79 140 184 410 204 524 3 17 9 38 14 48 5 9 8 17
5 17 -2 0 0 15 4 33 5 17 12 48 15 67 3 19 10 60 15 90 5 30 11 73 14 95 5 36
8 66 22 215 5 60 5 442 -1 505 -4 51 -10 107 -20 204 -14 127 -61 344 -104
476 -81 251 -218 505 -360 664 -61 69 -127 134 -183 182 -35 30 -65 56 -68 59
-22 22 -175 119 -261 164 -102 54 -280 128 -349 146 -19 5 -60 16 -90 24 -74
21 -227 52 -325 66 -44 6 -96 13 -115 17 -19 3 -380 7 -802 10 l-768 5 0
-2292z m1420 1619 c227 -32 358 -68 504 -141 150 -75 245 -150 366 -288 162
-185 277 -503 317 -878 15 -140 7 -607 -12 -697 -3 -11 -6 -33 -9 -50 -10 -68
-39 -195 -63 -275 -104 -348 -303 -602 -593 -757 -108 -58 -261 -111 -375
-129 -22 -3 -42 -7 -45 -9 -5 -3 -73 -11 -175 -21 -46 -4 -153 -6 -346 -5
l-176 1 0 1630 0 1631 271 -2 c149 0 300 -5 336 -10z"/>
<path d="M86500 31680 l0 -2290 1415 0 1415 0 -2 343 -3 342 -1006 0 -1006 0
-1 678 0 677 823 0 822 0 -1 343 -1 342 -820 0 -820 0 -1 580 c-1 319 2 582 6
585 4 3 443 5 974 5 l965 0 0 342 0 343 -1380 0 -1379 0 0 -2290z"/>
<path d="M97760 31680 l0 -2290 405 0 c379 0 405 1 406 18 0 9 0 1039 0 2287
l1 2270 -406 3 -406 2 0 -2290z"/>
<path d="M107810 31680 l0 -2290 389 0 390 0 -3 1168 c-2 642 -6 1199 -9 1237
-3 39 -8 106 -11 150 -8 116 -23 298 -31 390 -3 28 -7 75 -10 105 -2 30 -7 82
-10 115 -3 33 -7 83 -10 110 -2 28 -7 84 -10 125 -4 41 -8 92 -10 113 -6 74
24 41 94 -105 38 -79 101 -210 141 -293 40 -82 93 -193 117 -245 55 -116 163
-333 190 -380 18 -32 256 -463 326 -590 17 -30 40 -71 52 -90 12 -19 23 -38
23 -43 1 -4 8 -17 16 -30 11 -18 129 -230 259 -467 17 -30 98 -176 180 -325
230 -414 358 -645 387 -700 15 -27 37 -66 48 -85 11 -19 35 -63 53 -97 l33
-63 418 0 418 0 0 2290 0 2290 -389 0 -389 0 3 -1177 c2 -648 6 -1200 9 -1228
3 -27 8 -95 11 -150 3 -55 7 -118 9 -140 2 -22 7 -85 11 -140 4 -55 9 -107 10
-116 2 -8 6 -53 10 -100 3 -46 8 -100 10 -119 7 -56 23 -252 28 -344 4 -68
-25 -34 -94 111 -39 81 -95 198 -124 258 -60 125 -213 442 -253 525 -15 30
-38 75 -53 100 -14 25 -41 74 -61 110 -59 107 -320 580 -371 670 -13 25 -96
173 -182 330 -186 336 -212 384 -238 430 -18 32 -84 150 -142 255 -66 120 -87
158 -130 235 -82 148 -118 213 -195 353 l-75 137 -417 0 -418 0 0 -2290z"/>
</g>
</svg>
