<?xml version="1.0" standalone="no"?>
<!DOCTYPE svg PUBLIC "-//W3C//DTD SVG 20010904//EN"
 "http://www.w3.org/TR/2001/REC-SVG-20010904/DTD/svg10.dtd">
<svg version="1.0" xmlns="http://www.w3.org/2000/svg"
 width="338.000000pt" height="338.000000pt" viewBox="0 0 338.000000 338.000000"
 preserveAspectRatio="xMidYMid meet">
<metadata>
Created by potrace 1.11, written by Peter Selinger 2001-2013
</metadata>
<g transform="translate(0.000000,338.000000) scale(0.100000,-0.100000)"
fill="#000000" stroke="none">
<path d="M1524 3260 c-17 -4 -38 -6 -47 -4 -9 1 -17 -1 -17 -4 0 -4 -15 -8
-32 -9 -35 -3 -80 -9 -88 -13 -3 -1 -9 -3 -15 -4 -5 -1 -30 -8 -55 -16 -25 -7
-47 -14 -50 -15 -16 -4 -58 -17 -75 -25 -11 -4 -35 -13 -52 -20 -18 -7 -33
-17 -33 -22 0 -5 -4 -7 -9 -4 -14 9 -212 -100 -233 -129 -4 -6 -8 -6 -8 -1 0
6 -13 -3 -30 -19 -16 -16 -30 -25 -30 -21 0 5 -7 3 -15 -4 -8 -7 -12 -17 -8
-24 3 -6 3 -8 -2 -4 -11 10 -76 -42 -68 -55 3 -5 1 -7 -5 -4 -5 4 -21 -5 -34
-21 -12 -15 -34 -35 -48 -45 -13 -9 -21 -17 -16 -17 5 0 -3 -9 -18 -21 -14
-11 -23 -25 -20 -31 4 -6 2 -8 -4 -4 -13 8 -55 -48 -44 -59 4 -5 3 -6 -3 -3
-5 3 -16 0 -23 -8 -7 -8 -10 -14 -7 -14 3 0 -5 -11 -17 -25 -13 -14 -32 -42
-43 -62 -11 -21 -23 -40 -26 -43 -10 -9 -33 -55 -31 -62 1 -5 -2 -8 -7 -8 -8
0 -34 -58 -30 -69 0 -2 -3 -7 -8 -10 -8 -5 -57 -117 -58 -131 0 -3 -4 -11 -8
-17 -5 -7 -5 -17 -2 -23 3 -5 2 -10 -3 -10 -7 0 -24 -52 -36 -115 -3 -11 -9
-41 -15 -66 -18 -78 -24 -157 -25 -299 0 -163 7 -225 45 -397 7 -29 16 -53 21
-53 5 0 7 -4 3 -9 -4 -8 9 -51 44 -136 27 -66 98 -202 120 -228 14 -17 20 -27
12 -22 -9 5 -7 -2 5 -17 10 -14 24 -23 29 -20 6 3 7 2 3 -3 -8 -8 34 -72 56
-87 7 -5 7 -8 1 -8 -7 0 -7 -3 0 -8 6 -4 50 -48 98 -99 48 -50 87 -89 87 -86
0 3 8 -3 17 -13 32 -36 100 -84 107 -76 4 4 6 2 4 -3 -1 -6 1 -11 6 -12 5 -1
12 -5 15 -11 13 -20 199 -128 231 -134 8 -2 21 -9 28 -16 8 -7 18 -10 23 -7 5
4 9 1 9 -6 0 -7 3 -9 7 -6 3 4 12 2 20 -4 7 -6 13 -8 13 -4 0 4 6 3 13 -2 9
-8 74 -33 97 -38 3 -1 23 -7 44 -13 22 -6 42 -9 45 -7 2 3 9 1 15 -4 6 -5 31
-12 56 -16 25 -4 63 -9 85 -13 40 -6 357 -8 405 -2 14 2 51 9 82 15 31 7 59
10 62 7 3 -3 6 0 6 5 0 6 8 10 18 8 9 -1 22 0 27 4 6 3 12 6 15 6 23 1 140 41
140 48 0 4 4 6 8 3 5 -3 25 4 45 14 21 11 38 20 39 20 21 2 48 14 48 21 0 5 3
8 8 8 18 -3 33 2 28 9 -3 5 0 9 7 9 18 1 138 71 154 91 8 9 11 11 7 3 -4 -8
21 9 55 37 34 29 67 52 72 52 6 0 7 5 4 10 -3 6 -2 10 4 10 16 0 181 172 174
183 -3 6 -2 8 3 5 5 -3 15 0 22 8 7 8 10 14 6 14 -4 0 3 10 15 21 20 19 59 76
118 174 31 52 97 193 94 203 -1 1 6 16 14 32 9 17 13 35 10 40 -3 6 -2 10 3
10 11 0 61 200 68 272 4 43 12 141 16 203 1 25 -12 223 -17 245 -3 14 -8 39
-10 55 -7 44 -11 65 -26 115 -7 25 -12 48 -11 53 1 4 -2 7 -8 7 -6 0 -9 3 -8
8 3 12 -13 75 -25 97 -6 11 -12 26 -13 33 -1 8 -11 23 -21 35 -11 12 -12 17
-4 12 8 -5 5 6 -8 23 -12 18 -20 32 -17 32 5 0 -63 121 -73 130 -3 3 -12 17
-20 32 -8 15 -22 37 -33 47 -10 11 -18 23 -18 26 0 4 -6 12 -12 20 -7 7 -29
32 -48 56 -36 43 -158 169 -165 169 -2 0 -19 14 -37 30 -18 17 -39 30 -47 30
-8 0 -11 3 -8 7 7 6 -46 44 -60 42 -3 0 -10 6 -15 15 -9 17 -87 62 -100 58 -5
-1 -8 3 -8 9 0 5 -4 7 -10 4 -5 -3 -10 -2 -10 4 0 10 -85 53 -130 66 -3 1 -23
9 -45 19 -22 10 -50 19 -62 19 -11 1 -19 5 -17 8 4 7 -140 41 -178 43 -10 0
-18 3 -18 6 0 3 -10 7 -22 7 -13 1 -41 5 -63 8 -55 9 -333 13 -371 5z m283
-96 c113 -8 135 -11 203 -29 36 -9 74 -18 85 -20 11 -1 36 -9 55 -18 19 -8 44
-17 55 -19 11 -1 22 -5 25 -8 8 -8 114 -52 127 -53 7 0 10 -4 7 -9 -3 -4 0 -9
5 -9 21 -3 26 -5 60 -26 19 -12 39 -19 44 -16 6 3 7 2 4 -4 -4 -6 9 -19 28
-29 19 -10 35 -23 35 -28 0 -5 3 -7 6 -3 4 3 12 1 19 -6 6 -7 34 -30 61 -52
26 -22 64 -56 83 -75 20 -19 40 -34 46 -32 5 2 7 0 3 -4 -4 -4 9 -23 29 -43
21 -20 37 -38 38 -41 0 -3 3 -4 7 -3 5 2 7 0 6 -5 -5 -12 28 -52 36 -44 4 4 7
3 5 -3 -4 -17 12 -45 22 -39 5 3 9 2 8 -3 -2 -15 13 -53 20 -49 3 3 15 -16 25
-40 10 -24 22 -44 27 -44 5 0 9 -7 9 -15 0 -8 5 -15 11 -15 5 0 8 -4 4 -9 -3
-5 0 -15 7 -23 7 -7 14 -20 16 -28 2 -8 10 -31 20 -50 19 -40 17 -35 27 -77 4
-18 11 -30 16 -28 4 3 8 -3 7 -12 0 -20 7 -52 21 -97 10 -30 23 -104 36 -211
8 -59 9 -223 2 -280 -2 -22 -8 -62 -12 -90 -5 -27 -9 -61 -11 -75 -1 -14 -2
-26 -3 -27 -1 -2 -1 -5 -1 -8 -1 -3 -7 -23 -15 -46 -8 -23 -12 -45 -9 -50 3
-5 1 -9 -4 -9 -6 0 -13 -12 -17 -27 -3 -16 -21 -62 -38 -103 -17 -41 -30 -78
-29 -82 1 -5 -2 -8 -7 -8 -9 0 -35 -54 -31 -66 1 -4 -2 -10 -7 -13 -16 -12
-64 -81 -56 -81 4 0 4 -4 -2 -8 -5 -4 -32 -36 -60 -72 -27 -36 -64 -80 -82
-98 -19 -17 -31 -32 -27 -32 3 0 -14 -16 -38 -36 -23 -19 -47 -41 -53 -47 -5
-7 -29 -26 -52 -43 -24 -17 -39 -34 -35 -38 4 -4 3 -6 -3 -5 -11 3 -75 -28
-75 -37 0 -3 6 -2 13 2 7 4 9 3 4 -2 -5 -5 -13 -10 -18 -10 -5 -1 -13 -2 -19
-3 -5 0 -19 -11 -31 -23 -12 -13 -18 -17 -14 -9 8 15 -45 -16 -57 -34 -4 -5
-8 -7 -8 -2 0 4 -24 -5 -52 -20 -29 -15 -57 -28 -63 -29 -5 -1 -28 -10 -50
-19 -22 -10 -44 -19 -50 -19 -44 -7 -92 -20 -102 -29 -7 -5 -13 -7 -13 -4 0 3
-19 0 -42 -5 -150 -34 -353 -39 -533 -12 -16 3 -41 6 -55 8 -14 2 -38 9 -54
15 -16 6 -31 10 -33 7 -2 -2 -32 7 -65 20 -33 13 -64 21 -68 19 -5 -3 -10 -2
-12 2 -1 5 -39 24 -83 43 -115 50 -302 169 -366 233 -9 9 -20 13 -24 9 -5 -4
-5 -2 -2 4 7 11 -35 54 -53 54 -6 0 -9 6 -8 13 2 6 -3 11 -10 9 -6 -1 -11 4
-10 10 2 7 -3 12 -10 10 -8 -1 -11 1 -8 6 2 4 -9 23 -26 42 -46 52 -108 138
-108 149 0 5 -4 11 -9 13 -4 2 -27 38 -49 80 -22 42 -43 75 -46 72 -3 -2 -4
-1 -2 2 7 9 -15 64 -26 64 -5 0 -7 4 -4 9 4 5 -3 30 -13 55 -11 25 -23 61 -27
81 -3 19 -10 35 -16 35 -5 0 -7 4 -4 9 3 4 1 23 -4 41 -5 18 -12 52 -15 74 -3
23 -8 49 -12 60 -14 47 -16 365 -2 396 1 3 3 10 4 15 0 6 7 39 14 75 7 36 13
72 14 80 2 8 6 21 11 28 4 7 5 19 2 27 -3 8 -2 15 2 15 9 0 47 109 44 123 -1
4 2 7 7 7 8 0 23 41 20 56 0 4 3 10 8 13 15 11 34 52 28 62 -4 5 -1 8 6 7 7
-2 13 2 14 7 0 6 9 26 20 45 11 19 18 39 17 43 -1 5 2 6 7 3 8 -5 25 22 21 33
-1 2 2 7 7 10 18 13 72 89 68 95 -3 3 -2 4 1 1 9 -6 80 76 76 87 -1 5 2 7 7 4
12 -8 33 18 23 29 -4 5 -2 5 4 2 6 -4 22 6 36 21 14 15 34 33 46 41 12 8 18
19 15 24 -3 6 -1 7 4 4 6 -4 23 5 37 18 15 14 29 25 32 25 12 0 73 47 69 53
-3 4 -2 5 1 3 3 -3 28 9 55 25 28 16 54 29 59 29 6 0 10 5 10 11 0 5 5 7 10 4
5 -3 10 -1 10 6 0 7 3 9 7 6 3 -4 15 1 26 10 10 10 21 17 23 15 3 -2 30 6 61
18 165 61 277 85 458 96 55 3 102 8 104 10 2 2 8 1 12 -2 5 -2 39 -7 76 -10z"/>
<path d="M2240 2800 c0 -4 -8 -6 -19 -3 -10 3 -22 0 -25 -6 -4 -6 -16 -11 -27
-11 -10 0 -19 -5 -19 -12 0 -6 -3 -8 -6 -5 -4 3 -16 1 -28 -5 -11 -7 -50 -13
-86 -14 -81 -4 -90 -5 -90 -16 0 -5 -4 -6 -10 -3 -5 3 -10 2 -10 -4 0 -6 -7
-8 -15 -5 -8 4 -15 2 -15 -4 0 -5 -13 -15 -30 -22 -16 -7 -28 -16 -25 -20 3
-4 -3 -14 -12 -21 -14 -12 -16 -12 -9 1 4 8 0 6 -8 -5 -9 -11 -24 -29 -35 -40
-25 -27 -35 -62 -20 -71 8 -5 9 -3 4 7 -7 11 -6 12 6 2 8 -6 30 -14 49 -17 19
-3 49 -10 67 -15 17 -5 34 -7 37 -3 3 3 6 0 6 -7 0 -10 7 -9 26 4 18 11 24 13
19 4 -5 -9 -2 -8 9 2 23 21 28 55 10 70 -19 15 -95 19 -113 5 -12 -9 -13 -8
-6 4 4 8 -1 6 -12 -5 -11 -11 -19 -22 -18 -25 2 -3 -7 -6 -20 -6 -18 -1 -22 3
-21 21 0 13 4 21 8 19 3 -2 12 1 20 8 18 17 33 20 98 20 78 -1 92 -5 114 -36
16 -21 18 -29 7 -35 -7 -5 -11 -11 -9 -15 1 -3 -10 -19 -25 -36 -26 -27 -27
-31 -10 -37 10 -3 26 -13 35 -20 9 -8 22 -12 29 -7 8 4 10 3 5 -4 -4 -7 -1
-12 9 -12 8 0 18 -7 21 -15 4 -8 10 -12 15 -9 5 3 9 1 9 -5 0 -5 8 -17 17 -27
11 -11 18 -34 19 -62 1 -38 -3 -49 -30 -73 -17 -16 -25 -29 -18 -29 7 0 11 -4
7 -9 -3 -5 2 -16 10 -25 9 -8 16 -18 16 -21 -1 -21 14 -32 42 -30 44 2 77 -14
70 -34 -4 -13 -3 -14 5 -1 13 17 61 22 58 6 -3 -20 -17 -36 -26 -31 -5 3 -11
1 -15 -5 -9 -14 -58 -13 -74 3 -10 10 -12 9 -9 -6 1 -10 7 -18 11 -17 5 1 14
-6 21 -16 7 -9 18 -14 24 -10 7 4 12 2 12 -4 0 -6 5 -8 10 -5 6 3 10 1 10 -6
0 -7 3 -9 7 -6 3 4 12 2 20 -4 9 -8 17 -8 26 0 8 6 17 8 20 5 3 -4 13 1 22 10
9 9 23 16 31 16 8 0 14 5 14 11 0 5 4 8 8 5 5 -3 24 11 43 31 19 20 27 32 19
27 -8 -5 -19 -9 -25 -9 -5 0 -10 -4 -10 -10 0 -20 -15 -32 -37 -31 -18 1 -23
7 -24 28 -1 15 2 26 5 26 3 -1 19 4 34 10 16 7 35 12 43 12 23 0 16 20 -8 22
-25 1 -30 1 -98 -8 -63 -7 -120 -8 -154 -1 -43 9 -81 68 -65 99 10 19 39 14
39 -6 0 -12 85 -16 105 -5 6 3 22 5 38 4 15 0 27 2 27 5 0 8 40 6 95 -4 38 -7
103 -54 106 -77 3 -19 5 -24 14 -39 14 -23 7 -74 -15 -91 -10 -9 -16 -20 -12
-24 4 -5 2 -6 -3 -2 -6 3 -19 -1 -30 -9 -15 -11 -16 -17 -7 -26 9 -9 12 -9 12
1 0 7 5 9 10 6 6 -3 10 -1 10 6 0 7 3 9 6 6 4 -3 16 -1 28 5 23 12 125 19 141
10 6 -4 12 -7 15 -7 3 -1 19 -8 36 -18 28 -14 32 -21 30 -55 -2 -29 -10 -47
-33 -70 -18 -16 -35 -27 -40 -24 -4 4 3 -6 17 -22 14 -16 18 -25 10 -21 -12 7
-11 4 2 -11 20 -24 83 -146 80 -156 -1 -5 3 -8 8 -8 6 0 10 -6 10 -14 0 -7 7
-19 15 -26 8 -7 12 -16 9 -21 -3 -5 0 -9 5 -9 6 0 11 -7 11 -15 0 -7 8 -19 18
-24 9 -6 13 -11 8 -11 -10 0 63 -74 76 -76 4 -1 9 -2 11 -4 14 -11 39 -4 49
13 15 28 19 65 8 72 -5 3 -7 12 -3 20 3 9 -1 22 -8 31 -7 9 -15 23 -16 33 -10
45 -43 121 -55 121 -5 0 -6 4 -3 10 3 5 -5 30 -19 55 -14 25 -24 45 -21 45 2
0 -13 35 -35 78 -44 90 -80 168 -80 177 0 3 -11 23 -25 45 -14 22 -23 40 -21
40 3 0 -7 24 -22 53 -14 28 -27 54 -27 57 -1 3 -10 23 -20 45 -10 22 -19 42
-20 45 0 3 -9 19 -18 37 -9 18 -17 39 -17 48 0 8 -4 15 -8 15 -5 0 -9 6 -9 13
0 19 -93 211 -106 219 -7 4 -9 8 -4 8 11 0 -52 67 -97 103 -34 27 -47 31 -112
33 -41 1 -74 -2 -74 -6z"/>
<path d="M1061 2771 c-6 -10 -7 -21 -4 -25 3 -3 1 -6 -6 -6 -7 0 -9 -4 -6 -10
3 -5 2 -10 -2 -10 -5 0 -9 -8 -10 -17 -2 -25 -11 -99 -17 -153 -3 -25 -8 -97
-11 -160 -10 -208 -21 -357 -30 -414 -4 -21 -8 -48 -10 -60 -8 -57 -18 -85
-29 -80 -6 3 -2 -1 8 -10 10 -8 24 -13 30 -9 6 3 8 3 4 -2 -4 -4 8 -20 27 -35
19 -15 32 -30 28 -34 -3 -3 -1 -6 6 -6 7 0 19 -16 27 -35 8 -19 18 -35 22 -35
5 0 9 -6 10 -12 1 -13 9 -48 12 -58 1 -3 2 -8 2 -11 -1 -4 11 -10 26 -14 15
-3 45 -17 67 -30 22 -12 43 -22 47 -21 4 0 27 -26 52 -59 25 -33 50 -64 54
-70 18 -23 25 -38 14 -31 -6 4 -4 -10 5 -31 11 -26 17 -76 20 -158 2 -93 8
-129 23 -162 30 -65 48 -69 84 -20 17 23 36 48 43 55 7 7 13 20 13 28 0 8 3
14 8 14 8 0 38 61 34 72 -1 5 2 8 7 8 7 0 22 39 21 55 0 3 4 11 10 18 6 6 23
31 38 54 15 23 47 65 72 94 25 29 44 57 43 61 -2 4 3 7 10 5 6 -1 11 4 9 11
-1 8 1 11 6 8 4 -2 32 20 62 51 29 30 64 62 77 70 22 15 22 16 6 43 -9 16 -33
35 -52 43 -43 18 -101 22 -101 7 0 -5 -3 -9 -7 -8 -15 4 -53 -13 -53 -23 0 -6
-5 -7 -10 -4 -6 3 -13 -1 -16 -9 -3 -9 -9 -14 -13 -11 -10 6 -90 -80 -127
-135 -28 -43 -43 -63 -81 -105 -33 -38 -109 -11 -133 45 -31 75 -28 237 10
440 12 63 23 124 24 135 1 12 6 27 10 34 4 7 5 15 2 18 -3 3 -1 11 4 18 5 6
11 27 12 46 2 19 5 36 8 39 6 6 48 137 56 172 20 96 26 208 12 225 -6 7 -7 13
-2 13 4 0 -1 7 -12 16 -10 8 -12 13 -4 9 8 -4 6 1 -5 10 -26 21 -67 16 -80
-10 -5 -11 -14 -27 -20 -35 -5 -8 -10 -17 -10 -20 -1 -3 -11 -35 -23 -71 -12
-36 -24 -74 -27 -85 -2 -10 -13 -50 -24 -88 -11 -37 -20 -71 -19 -75 1 -3 -6
-31 -16 -62 -9 -31 -19 -67 -21 -80 -3 -13 -19 -68 -36 -121 -29 -92 -51 -130
-63 -110 -9 14 -10 94 -3 137 4 22 10 69 12 105 3 36 8 83 10 105 19 160 25
447 10 481 -4 11 -10 27 -12 37 -11 58 -80 90 -102 48z"/>
<path d="M805 2680 c-30 -12 -52 -41 -63 -85 -13 -51 -12 -40 -17 -251 -3 -99
-5 -183 -6 -185 0 -2 -2 -68 -3 -146 l-2 -142 41 0 c46 1 92 -7 130 -21 32
-12 38 -12 31 -2 -10 16 -18 151 -21 357 -5 307 -11 380 -37 447 -12 31 -25
38 -53 28z"/>
<path d="M1705 2500 c-2 -3 5 -7 16 -7 10 -1 19 2 19 6 0 9 -29 10 -35 1z"/>
<path d="M1750 2500 c0 -5 6 -10 13 -11 6 0 20 -2 30 -4 11 -2 17 -2 15 0 -1
2 -7 4 -13 5 -5 1 -18 6 -27 11 -12 6 -18 6 -18 -1z"/>
<path d="M1840 2443 c11 -8 25 -11 30 -8 6 3 10 1 10 -4 0 -6 5 -11 10 -11 6
0 16 -5 23 -10 56 -48 72 -58 81 -53 6 3 8 3 4 -2 -4 -4 6 -21 22 -37 17 -15
30 -32 30 -37 0 -4 9 -16 21 -27 20 -18 21 -18 34 -1 16 22 10 67 -10 83 -8 6
-12 13 -9 17 3 3 -4 8 -15 12 -12 3 -21 11 -21 17 0 6 -3 8 -7 5 -3 -4 -11 0
-17 8 -6 7 -18 15 -26 17 -8 2 -21 10 -28 18 -12 13 -13 13 -7 0 4 -9 1 -8 -8
3 -11 13 -32 19 -77 21 -55 3 -59 2 -40 -11z"/>
<path d="M1741 2446 c20 -18 89 -44 94 -36 4 6 3 10 -2 8 -4 -1 -25 6 -47 15
-37 16 -54 21 -45 13z"/>
<path d="M1850 2401 c0 -15 30 -41 46 -41 8 0 13 -4 12 -9 -2 -5 8 -21 22 -37
14 -16 26 -31 26 -34 0 -3 8 -19 18 -36 14 -23 26 -31 48 -31 19 0 24 3 16 9
-7 4 -9 8 -4 8 8 0 -29 52 -73 102 -17 20 -28 25 -37 18 -9 -8 -12 -6 -10 6 0
9 -13 25 -31 35 -18 10 -33 15 -33 10z"/>
<path d="M1652 2393 c0 -5 -2 -17 -6 -28 -10 -26 -17 -49 -17 -55 -1 -3 -6
-11 -12 -19 -10 -12 -9 -13 3 -6 13 7 13 6 2 -7 -15 -19 -27 -82 -36 -198 -2
-30 -9 -67 -15 -82 -6 -16 -9 -28 -6 -28 2 0 -2 -12 -10 -27 -8 -15 -12 -30
-9 -35 3 -4 0 -8 -7 -8 -7 0 -9 -3 -6 -7 4 -3 2 -12 -4 -20 -6 -7 -8 -13 -3
-13 5 0 4 -4 -3 -8 -6 -4 -13 -16 -15 -27 -1 -11 -9 -26 -16 -33 -7 -8 -10
-18 -7 -23 4 -5 1 -9 -5 -9 -6 0 -8 -4 -5 -10 3 -5 2 -10 -2 -10 -8 0 -24 -34
-32 -65 -1 -5 -9 -14 -17 -18 -8 -4 -14 -16 -14 -27 0 -10 -5 -20 -12 -22 -7
-3 2 -11 19 -18 17 -8 29 -18 26 -23 -3 -5 0 -7 8 -5 8 3 22 1 32 -4 10 -5 17
-5 17 1 0 5 9 8 19 6 11 -2 31 7 45 20 14 13 26 22 26 19 0 -3 6 1 14 8 8 7
12 16 10 19 -2 4 3 9 11 13 8 3 15 12 15 21 0 8 5 14 12 13 7 -2 12 2 13 7 0
6 9 28 20 50 10 22 20 45 21 50 2 6 10 35 19 65 10 30 17 63 18 73 1 9 4 17 8
17 7 0 22 39 20 53 -1 4 5 7 11 8 53 5 76 3 93 -6 28 -14 65 -52 58 -59 -4 -3
-1 -6 5 -6 7 0 11 -3 10 -7 -2 -5 6 -28 16 -53 11 -25 20 -48 22 -52 1 -5 3
-11 4 -15 1 -5 3 -12 5 -18 1 -5 3 -12 4 -15 3 -5 9 -34 16 -65 2 -11 6 -31 9
-45 3 -14 7 -36 10 -50 3 -14 8 -36 11 -50 3 -14 8 -45 10 -70 3 -25 7 -65 10
-90 3 -25 7 -90 10 -145 9 -178 13 -217 29 -305 14 -71 65 -140 101 -135 23 4
45 18 39 26 -3 5 -1 9 4 9 21 0 16 214 -13 565 -11 128 -11 195 -2 195 5 0 7
6 4 14 -3 8 1 17 9 20 13 5 25 -12 34 -49 1 -5 7 -21 12 -35 5 -14 12 -36 14
-50 3 -14 7 -33 10 -42 7 -22 15 -59 18 -83 2 -11 4 -20 6 -20 1 0 4 -13 6
-30 3 -16 7 -37 11 -45 8 -19 12 -39 15 -67 1 -13 6 -23 10 -23 4 0 5 -6 2
-14 -3 -8 0 -17 5 -21 6 -3 9 -10 6 -15 -3 -5 -1 -18 4 -28 6 -11 13 -34 16
-52 3 -18 14 -50 24 -71 11 -22 15 -37 11 -34 -16 10 61 -130 80 -147 11 -9
20 -21 20 -26 0 -18 49 -20 68 -3 19 17 22 65 7 136 -5 22 -7 44 -6 49 1 4 -2
13 -7 20 -5 6 -8 19 -7 29 2 9 -1 17 -6 17 -6 0 -8 4 -4 9 3 5 0 13 -6 16 -5
4 -8 14 -5 22 3 8 3 20 -1 26 -4 7 -8 17 -9 24 -2 14 -44 161 -52 183 -10 30
-23 80 -24 98 -1 6 -5 12 -9 12 -5 0 -6 6 -3 13 2 7 -2 29 -10 49 -8 19 -13
38 -10 41 3 3 2 11 -2 18 -7 13 -11 33 -17 91 -2 15 -6 30 -9 33 -3 3 -4 21
-1 39 3 28 0 34 -14 31 -10 -1 -29 4 -42 12 -16 11 -21 11 -16 2 5 -7 -8 0
-28 15 -20 16 -37 25 -37 20 0 -5 -7 2 -16 14 -8 12 -22 22 -30 22 -8 0 -13 4
-10 8 3 5 -4 14 -14 22 -10 8 -17 17 -14 22 3 4 -2 11 -10 14 -9 3 -14 9 -12
13 4 5 -26 8 -126 12 -10 0 -18 5 -18 11 0 6 -3 8 -7 5 -3 -4 -12 -2 -20 4 -7
6 -13 8 -13 4 0 -5 -9 0 -20 10 -11 10 -20 15 -20 12 0 -4 -9 1 -19 11 -10 9
-33 29 -50 45 -17 15 -29 27 -26 27 5 0 -18 29 -43 56 -7 8 -11 14 -7 14 3 0
-2 15 -12 33 -9 17 -18 38 -20 45 -2 6 -5 20 -7 30 -3 9 -5 19 -6 22 -1 3 -2
8 -1 13 0 4 -3 7 -9 7 -5 0 -7 6 -4 13 3 8 -2 20 -10 27 -9 7 -13 16 -10 21 3
5 -2 9 -10 9 -8 0 -18 5 -22 12 -4 7 -3 8 4 4 7 -4 12 -5 12 -2 0 3 -18 15
-40 26 -22 11 -39 17 -38 13z"/>
<path d="M465 2344 c-11 -8 -19 -17 -17 -19 1 -3 2 -6 1 -7 -14 -47 -16 -139
-6 -253 11 -115 14 -151 21 -235 4 -41 9 -86 12 -100 3 -14 8 -52 10 -85 2
-33 6 -73 9 -90 2 -16 7 -61 10 -100 3 -38 7 -83 10 -100 5 -31 14 -143 20
-230 8 -130 36 -221 88 -287 50 -63 155 -95 258 -79 32 5 58 4 78 -5 17 -7 31
-10 31 -7 0 3 7 0 15 -7 15 -12 99 -17 145 -8 44 9 114 40 157 71 33 24 40 33
32 44 -6 7 -17 13 -23 13 -12 0 -47 -36 -41 -42 11 -11 -77 -6 -126 8 -63 18
-99 44 -99 74 0 22 44 73 53 63 4 -3 7 -1 7 6 0 7 4 10 9 7 5 -4 11 -1 13 5 4
13 -37 59 -53 59 -6 0 -8 4 -4 9 3 5 1 12 -4 15 -5 3 -18 23 -29 44 -27 53
-23 109 12 139 15 13 32 21 37 18 5 -4 9 -1 9 5 0 6 4 9 9 6 8 -6 -11 100 -20
108 -2 2 -15 6 -29 8 -14 1 -34 13 -45 24 -11 12 -30 25 -43 29 -37 11 -19 30
31 33 38 3 49 -1 59 -17 18 -29 30 -26 16 4 -6 14 -15 25 -20 25 -5 0 -6 4 -3
10 3 5 -12 22 -35 39 -35 26 -47 28 -103 26 -70 -3 -145 -31 -128 -48 7 -7 17
-5 31 8 26 23 46 27 59 11 21 -25 -11 -48 -67 -49 -42 0 -50 -3 -40 -14 6 -7
13 -11 16 -8 3 3 11 0 18 -6 8 -6 21 -9 29 -5 8 3 15 1 15 -4 0 -6 10 -10 22
-10 39 0 132 -31 160 -53 34 -28 45 -74 24 -102 -13 -17 -17 -18 -25 -5 -5 8
-8 17 -5 21 4 8 -38 26 -76 33 -91 17 -133 27 -150 36 -11 6 -20 8 -20 5 0 -4
-18 13 -40 36 -22 23 -38 45 -35 47 2 3 0 13 -5 23 -7 12 -7 20 0 24 6 4 7 12
3 18 -11 18 -11 29 4 60 7 15 20 27 28 27 8 0 15 4 15 8 0 10 2 10 90 11 71 2
88 0 108 -12 6 -5 17 -5 24 -1 6 4 8 3 5 -3 -4 -7 8 -11 33 -10 22 1 40 2 40
2 0 15 -34 64 -41 59 -5 -3 -8 0 -7 8 4 16 -42 24 -52 8 -6 -9 -13 -9 -29 -1
-22 12 -25 40 -6 53 13 10 56 -1 77 -19 9 -8 18 -10 22 -5 7 13 -67 78 -119
104 -22 12 -53 22 -70 24 -16 1 -30 3 -30 4 0 1 -17 3 -38 5 -29 3 -40 -1 -48
-17 -8 -15 -8 -23 1 -32 9 -7 14 -8 16 0 6 14 67 8 108 -11 38 -18 51 -48 34
-79 -23 -43 -36 -48 -123 -50 -111 -3 -197 53 -193 125 1 31 7 39 35 50 18 7
33 17 33 21 0 5 4 7 9 4 12 -8 21 18 16 46 -23 114 -28 146 -27 165 1 12 -2
24 -7 28 -5 3 -7 14 -4 24 3 11 0 35 -7 55 -6 19 -13 47 -16 62 -9 52 -61 123
-89 123 -5 0 -19 -6 -30 -15z"/>
<path d="M2000 2194 c0 -4 8 -13 18 -21 10 -9 11 -11 2 -7 -11 6 -10 2 3 -13
9 -11 14 -23 10 -26 -3 -4 -2 -7 4 -7 6 0 16 -13 23 -30 7 -16 17 -30 22 -30
5 0 7 -4 4 -9 -5 -8 42 -64 77 -90 15 -12 17 -11 14 6 -1 11 -11 32 -20 47
-10 14 -14 26 -10 26 5 0 3 4 -3 8 -5 4 -20 27 -32 52 -26 56 -58 97 -68 88
-3 -4 -15 -3 -25 3 -11 5 -19 7 -19 3z"/>
<path d="M2550 2061 c0 -7 -4 -10 -10 -6 -5 3 -17 -6 -26 -20 -9 -13 -20 -22
-25 -19 -5 3 -9 0 -9 -5 0 -6 -6 -11 -14 -11 -7 0 -19 -7 -26 -15 -9 -10 -9
-15 -1 -15 6 0 11 5 11 10 0 6 6 10 13 8 22 -4 68 12 62 22 -3 6 -2 10 4 10
13 0 35 39 27 48 -3 3 -6 0 -6 -7z"/>
<path d="M2459 1950 c-9 -5 -45 -12 -80 -14 -75 -6 -96 -10 -104 -18 -7 -6 39
-52 54 -54 6 -1 12 -2 14 -4 11 -9 37 -5 41 6 7 18 30 18 46 -1 10 -12 8 -16
-15 -25 -14 -5 -37 -10 -51 -10 -13 0 -24 -5 -24 -11 0 -6 7 -8 16 -5 8 3 12
2 9 -4 -6 -10 7 -14 34 -11 8 2 10 -2 5 -10 -5 -9 -2 -10 9 -6 9 3 19 2 22 -2
2 -5 40 -7 82 -5 43 2 86 4 96 5 9 0 17 5 17 11 0 5 6 8 13 5 16 -6 21 39 5
49 -7 4 -8 3 -4 -4 4 -8 0 -12 -12 -12 -10 0 -22 -3 -26 -7 -4 -4 -31 -8 -59
-8 -41 -1 -55 3 -67 20 -21 28 -20 56 3 82 28 31 11 54 -24 33z"/>
<path d="M2584 1949 c-3 -5 -9 -7 -14 -4 -13 8 -68 -55 -65 -73 2 -10 4 -20 4
-23 1 -9 53 -5 69 4 6 5 12 6 12 3 0 -3 9 2 19 11 11 9 18 20 15 25 -3 5 -2 8
3 7 19 -3 34 2 29 10 -4 5 2 8 11 6 17 -3 19 -25 4 -35 -5 -3 2 -15 14 -28 21
-22 22 -22 43 -5 31 27 37 65 13 87 -22 20 -146 32 -157 15z"/>
<path d="M651 1832 c-1 -7 -5 -10 -11 -7 -5 3 -10 1 -10 -6 0 -7 -3 -9 -6 -6
-4 4 -15 -3 -26 -15 -21 -25 -16 -53 16 -80 20 -16 27 -19 42 -17 4 0 10 -5
14 -12 10 -15 109 -16 138 0 27 15 43 43 33 60 -13 20 -94 26 -122 9 -27 -16
-66 -18 -59 -3 3 6 8 9 12 8 3 -1 12 4 18 12 10 12 10 15 -2 15 -8 0 -19 12
-25 28 -6 15 -11 21 -12 14z"/>
<path d="M2630 1759 c-31 -13 -73 -20 -128 -22 -33 -1 -40 -4 -29 -12 8 -5 15
-13 15 -18 1 -4 10 -26 21 -50 10 -23 29 -69 41 -102 12 -33 29 -73 37 -89 11
-19 12 -26 3 -21 -6 4 -4 -4 5 -19 10 -14 15 -26 12 -26 -3 0 5 -24 18 -54 13
-30 21 -57 18 -60 -4 -3 -1 -6 6 -6 7 0 10 -4 7 -8 -3 -5 1 -20 9 -35 7 -14
11 -28 7 -31 -3 -3 -1 -6 5 -6 5 0 10 -6 10 -12 0 -7 12 -39 27 -70 14 -31 26
-62 26 -68 0 -6 5 -8 10 -5 6 3 10 -2 10 -13 0 -10 14 -31 30 -45 17 -15 30
-22 30 -16 0 5 4 8 9 4 5 -3 18 6 29 19 19 25 22 86 8 146 -15 64 -18 76 -18
88 -1 6 -4 12 -8 12 -4 0 -7 6 -8 13 -1 23 -12 67 -24 94 -6 16 -11 31 -10 36
1 4 -2 7 -8 7 -5 0 -7 7 -3 16 3 9 1 19 -5 23 -6 3 -14 20 -17 36 -8 38 -10
44 -23 78 -7 16 -12 34 -12 41 0 7 -3 16 -7 20 -4 3 -8 14 -9 22 -1 9 -6 23
-10 32 -4 9 -8 22 -10 29 -7 33 -26 83 -32 82 -4 0 -18 -5 -32 -10z"/>
<path d="M760 1597 c-32 -16 -40 -48 -11 -40 12 3 21 9 21 14 0 5 3 8 8 8 15
-4 92 14 92 20 0 13 -85 11 -110 -2z"/>
<path d="M1116 1507 c14 -162 29 -222 59 -235 14 -7 25 -16 25 -21 0 -11 -27
-22 -33 -13 -2 4 -2 0 1 -8 3 -8 4 -25 3 -38 0 -13 4 -20 9 -17 5 3 7 0 5 -7
-9 -22 43 -109 96 -161 27 -26 49 -46 49 -43 0 2 16 -11 36 -30 20 -19 42 -34
48 -34 6 0 0 9 -14 19 -34 26 -142 131 -134 131 3 0 -1 11 -10 25 -9 14 -14
25 -11 25 3 0 1 8 -4 18 -8 16 -34 144 -47 237 -3 17 -7 41 -10 55 -3 14 -8
36 -10 48 -6 29 -31 69 -48 75 -9 4 -12 -4 -10 -26z"/>
<path d="M1007 1449 c7 -7 15 -10 18 -7 3 3 -2 9 -12 12 -14 6 -15 5 -6 -5z"/>
<path d="M1085 1230 c-10 -11 -14 -20 -9 -20 5 0 3 -4 -5 -9 -13 -8 -12 -15 2
-51 20 -51 77 -129 95 -130 7 0 11 -4 7 -9 -3 -5 4 -12 15 -16 11 -3 20 -11
20 -17 0 -5 6 -8 14 -5 7 3 18 1 24 -5 6 -6 15 -7 21 -4 7 4 -5 23 -28 48 -46
47 -97 139 -109 193 -9 46 -22 53 -47 25z"/>
<path d="M1125 940 c-4 -6 -10 -8 -15 -5 -4 3 -11 -7 -14 -21 -5 -19 -1 -30
16 -44 34 -27 94 -43 117 -30 11 5 29 10 40 10 31 0 33 16 5 35 -18 11 -24 13
-18 4 4 -8 -9 3 -30 24 -38 37 -87 50 -101 27z"/>
<path d="M1311 901 c39 -29 67 -42 74 -32 4 8 -34 28 -43 22 -1 -1 -10 5 -18
14 -9 8 -20 15 -26 15 -6 0 0 -8 13 -19z"/>
</g>
</svg>
